<svg xmlns="http://www.w3.org/2000/svg" xmlns:xlink="http://www.w3.org/1999/xlink" width="580" zoomAndPan="magnify" viewBox="0 0 434.88 225" height="300" preserveAspectRatio="xMidYMid meet" version="1.0"><defs><clipPath id="c9f684fe0e"><path d="M 148 159.859375 L 186 159.859375 L 186 220 L 148 220 Z M 148 159.859375 " clip-rule="nonzero"/></clipPath><clipPath id="3e5da78b16"><path d="M 192 159.859375 L 206 159.859375 L 206 219 L 192 219 Z M 192 159.859375 " clip-rule="nonzero"/></clipPath><clipPath id="f1104a1d3d"><path d="M 325 159.859375 L 339 159.859375 L 339 219 L 325 219 Z M 325 159.859375 " clip-rule="nonzero"/></clipPath><clipPath id="596d7d1a9b"><path d="M 345 159.859375 L 359 159.859375 L 359 219 L 345 219 Z M 345 159.859375 " clip-rule="nonzero"/></clipPath></defs><path fill="#ffffff" d="M 33.234375 48.257812 C 33.234375 51.753906 32.476562 54.855469 30.972656 57.53125 C 29.453125 60.203125 27.308594 62.265625 24.519531 63.734375 C 21.726562 65.203125 18.425781 65.914062 14.59375 65.914062 C 12.910156 65.914062 11.261719 65.796875 9.609375 65.550781 C 7.957031 65.300781 6.355469 64.9375 4.789062 64.410156 C 3.21875 63.898438 1.632812 63.238281 0 62.429688 L 0 49.792969 C 2.445312 51.144531 4.902344 52.285156 7.414062 53.191406 C 9.921875 54.097656 12.285156 54.558594 14.496094 54.558594 C 15.949219 54.558594 17.121094 54.3125 17.980469 53.835938 C 18.839844 53.339844 19.480469 52.695312 19.878906 51.886719 C 20.292969 51.078125 20.488281 50.1875 20.488281 49.214844 C 20.488281 48.027344 20.191406 46.988281 19.597656 46.09375 C 19.003906 45.203125 18.09375 44.3125 16.875 43.421875 C 15.652344 42.53125 14.066406 41.523438 12.136719 40.386719 C 10.78125 39.527344 9.425781 38.605469 8.074219 37.632812 C 6.71875 36.65625 5.464844 35.519531 4.308594 34.230469 C 3.136719 32.945312 2.210938 31.394531 1.503906 29.613281 C 0.808594 27.828125 0.445312 25.699219 0.445312 23.226562 C 0.445312 19.761719 1.140625 16.789062 2.507812 14.316406 C 3.878906 11.839844 5.910156 9.894531 8.585938 8.523438 C 11.261719 7.15625 14.464844 6.460938 18.195312 6.460938 C 20.621094 6.460938 23.066406 6.808594 25.523438 7.484375 C 27.984375 8.160156 30.542969 9.167969 33.1875 10.519531 L 29.453125 21.214844 C 27.242188 20.023438 25.246094 19.152344 23.492188 18.574219 C 21.742188 18.011719 20.027344 17.714844 18.34375 17.714844 C 17.203125 17.714844 16.246094 17.914062 15.46875 18.324219 C 14.695312 18.738281 14.101562 19.300781 13.6875 20.023438 C 13.273438 20.75 13.074219 21.609375 13.074219 22.582031 C 13.074219 23.820312 13.339844 24.859375 13.886719 25.699219 C 14.429688 26.542969 15.320312 27.382812 16.558594 28.210938 C 17.796875 29.035156 19.480469 30.105469 21.578125 31.410156 C 24.054688 32.8125 26.167969 34.3125 27.902344 35.914062 C 29.636719 37.515625 30.941406 39.296875 31.832031 41.261719 C 32.722656 43.222656 33.167969 45.566406 33.167969 48.273438 Z M 33.234375 48.257812 " fill-opacity="1" fill-rule="nonzero"/><path fill="#ffffff" d="M 55.277344 19.808594 C 58.941406 19.808594 62.078125 20.601562 64.6875 22.203125 C 67.28125 23.804688 69.261719 26.097656 70.648438 29.082031 C 72.019531 32.085938 72.710938 35.734375 72.710938 40.054688 L 72.710938 46.375 L 49.449219 46.375 C 49.449219 49.675781 50.191406 52.152344 51.675781 53.835938 C 53.164062 55.5 55.359375 56.34375 58.28125 56.34375 C 60.445312 56.34375 62.476562 56.078125 64.40625 55.535156 C 66.339844 54.988281 68.335938 54.132812 70.449219 52.941406 L 70.449219 62.746094 C 68.453125 63.832031 66.339844 64.625 64.125 65.136719 C 61.914062 65.648438 59.402344 65.894531 56.597656 65.894531 C 52.320312 65.894531 48.753906 65.023438 45.898438 63.257812 C 43.027344 61.507812 40.863281 58.917969 39.378906 55.515625 C 37.890625 52.117188 37.148438 47.960938 37.148438 43.042969 C 37.148438 38.125 37.859375 33.71875 39.292969 30.289062 C 40.730469 26.855469 42.792969 24.25 45.503906 22.46875 C 48.210938 20.683594 51.460938 19.792969 55.308594 19.792969 Z M 55.589844 29.050781 C 53.855469 29.050781 52.4375 29.742188 51.332031 31.113281 C 50.222656 32.484375 49.613281 34.742188 49.515625 37.878906 L 61.253906 37.878906 C 61.253906 35.996094 61.023438 34.398438 60.578125 33.109375 C 60.113281 31.804688 59.46875 30.816406 58.628906 30.105469 C 57.785156 29.414062 56.777344 29.050781 55.589844 29.050781 Z M 55.589844 29.050781 " fill-opacity="1" fill-rule="nonzero"/><path fill="#ffffff" d="M 95.460938 65.894531 C 91.46875 65.894531 88.066406 65.085938 85.292969 63.46875 C 82.5 61.851562 80.40625 59.363281 78.96875 55.980469 C 77.53125 52.597656 76.824219 48.304688 76.824219 43.058594 C 76.824219 38.308594 77.546875 34.199219 79.019531 30.71875 C 80.472656 27.234375 82.617188 24.53125 85.457031 22.617188 C 88.296875 20.703125 91.796875 19.746094 95.957031 19.746094 C 98.382812 19.746094 100.613281 20.007812 102.644531 20.554688 C 104.675781 21.097656 106.558594 21.871094 108.273438 22.914062 L 104.789062 32.546875 C 103.386719 31.738281 102 31.128906 100.664062 30.734375 C 99.308594 30.320312 97.9375 30.125 96.519531 30.125 C 95 30.125 93.730469 30.617188 92.671875 31.574219 C 91.617188 32.53125 90.804688 33.984375 90.246094 35.914062 C 89.667969 37.828125 89.386719 40.1875 89.386719 43.011719 C 89.386719 45.832031 89.667969 48.140625 90.246094 50.007812 C 90.804688 51.871094 91.632812 53.257812 92.707031 54.179688 C 93.777344 55.105469 95.117188 55.550781 96.683594 55.550781 C 98.515625 55.550781 100.300781 55.238281 102.035156 54.609375 C 103.75 54 105.46875 53.109375 107.136719 51.96875 L 107.136719 62.25 C 105.515625 63.4375 103.75 64.34375 101.835938 64.972656 C 99.921875 65.582031 97.789062 65.894531 95.460938 65.894531 Z M 95.460938 65.894531 " fill-opacity="1" fill-rule="nonzero"/><path fill="#ffffff" d="M 135.351562 19.746094 C 135.945312 19.746094 136.574219 19.777344 137.25 19.859375 C 137.925781 19.941406 138.605469 20.089844 139.3125 20.304688 L 138.175781 32.945312 C 137.628906 32.78125 137.019531 32.664062 136.359375 32.582031 C 135.679688 32.5 134.890625 32.449219 133.964844 32.449219 C 132.726562 32.449219 131.601562 32.648438 130.597656 33.058594 C 129.589844 33.472656 128.730469 34.082031 127.953125 34.925781 C 127.179688 35.765625 126.617188 36.804688 126.203125 38.078125 C 125.808594 39.347656 125.609375 40.882812 125.609375 42.648438 L 125.609375 65.085938 L 113.292969 65.085938 L 113.292969 20.535156 L 122.6875 20.535156 L 124.472656 27.828125 L 125.03125 27.828125 C 125.675781 26.425781 126.519531 25.105469 127.542969 23.902344 C 128.566406 22.699219 129.753906 21.691406 131.074219 20.914062 C 132.394531 20.140625 133.816406 19.746094 135.335938 19.746094 Z M 135.351562 19.746094 " fill-opacity="1" fill-rule="nonzero"/><path fill="#ffffff" d="M 158.449219 19.808594 C 162.113281 19.808594 165.25 20.601562 167.84375 22.203125 C 170.433594 23.804688 172.433594 26.097656 173.804688 29.082031 C 175.175781 32.085938 175.867188 35.734375 175.867188 40.054688 L 175.867188 46.375 L 152.605469 46.375 C 152.605469 49.675781 153.347656 52.152344 154.832031 53.835938 C 156.320312 55.5 158.515625 56.34375 161.4375 56.34375 C 163.601562 56.34375 165.632812 56.078125 167.5625 55.535156 C 169.496094 54.988281 171.492188 54.132812 173.605469 52.941406 L 173.605469 62.746094 C 171.609375 63.832031 169.496094 64.625 167.28125 65.136719 C 165.070312 65.648438 162.542969 65.894531 159.738281 65.894531 C 155.476562 65.894531 151.910156 65.023438 149.039062 63.257812 C 146.183594 61.507812 144.003906 58.917969 142.515625 55.515625 C 141.03125 52.117188 140.289062 47.960938 140.289062 43.042969 C 140.289062 38.125 140.996094 33.71875 142.433594 30.289062 C 143.871094 26.855469 145.917969 24.25 148.640625 22.46875 C 151.332031 20.683594 154.601562 19.792969 158.449219 19.792969 Z M 158.761719 29.050781 C 157.027344 29.050781 155.609375 29.742188 154.503906 31.113281 C 153.398438 32.484375 152.785156 34.742188 152.6875 37.878906 L 164.441406 37.878906 C 164.441406 35.996094 164.210938 34.398438 163.75 33.109375 C 163.285156 31.804688 162.644531 30.816406 161.800781 30.105469 C 160.957031 29.414062 159.953125 29.050781 158.761719 29.050781 Z M 158.761719 29.050781 " fill-opacity="1" fill-rule="nonzero"/><path fill="#ffffff" d="M 199.046875 55.535156 C 200.023438 55.535156 201.011719 55.417969 202.050781 55.171875 C 203.078125 54.921875 204.164062 54.59375 205.289062 54.164062 L 205.289062 63.636719 C 203.933594 64.328125 202.433594 64.890625 200.75 65.300781 C 199.082031 65.714844 197.25 65.894531 195.234375 65.894531 C 192.527344 65.894531 190.265625 65.382812 188.433594 64.363281 C 186.597656 63.339844 185.210938 61.738281 184.304688 59.578125 C 183.378906 57.414062 182.933594 54.578125 182.933594 51.078125 L 182.933594 30.335938 L 178.164062 30.335938 L 178.164062 24.347656 L 183.992188 20.867188 L 187.0625 11.394531 L 195.167969 11.394531 L 195.167969 20.636719 L 204.726562 20.636719 L 204.726562 30.355469 L 195.167969 30.355469 L 195.167969 51.011719 C 195.167969 52.53125 195.515625 53.652344 196.191406 54.410156 C 196.867188 55.171875 197.824219 55.550781 199.0625 55.550781 Z M 199.046875 55.535156 " fill-opacity="1" fill-rule="nonzero"/><path fill="#ffffff" d="M 227.890625 19.746094 C 232.644531 19.746094 236.328125 21.082031 238.953125 23.753906 C 241.578125 26.425781 242.882812 30.402344 242.882812 35.699219 L 242.882812 65.105469 L 234.050781 65.105469 L 231.855469 59.195312 L 231.605469 59.195312 C 230.582031 60.714844 229.492188 61.96875 228.371094 62.960938 C 227.230469 63.964844 225.941406 64.707031 224.523438 65.1875 C 223.085938 65.664062 221.371094 65.914062 219.371094 65.914062 C 216.828125 65.914062 214.734375 65.285156 213.046875 64.015625 C 211.382812 62.746094 210.109375 61.046875 209.234375 58.917969 C 208.359375 56.789062 207.945312 54.394531 207.945312 51.753906 C 207.945312 47.050781 209.332031 43.539062 212.125 41.179688 C 214.898438 38.835938 218.976562 37.546875 224.308594 37.332031 L 230.550781 37.085938 L 230.550781 35.71875 C 230.550781 33.503906 230.121094 31.890625 229.246094 30.867188 C 228.386719 29.84375 227.117188 29.332031 225.429688 29.332031 C 223.976562 29.332031 222.394531 29.613281 220.691406 30.1875 C 218.992188 30.75 217.144531 31.542969 215.144531 32.566406 L 211.746094 23.738281 C 213.957031 22.449219 216.417969 21.460938 219.125 20.785156 C 221.832031 20.105469 224.738281 19.777344 227.875 19.777344 Z M 227.414062 44.925781 C 224.984375 45.023438 223.203125 45.617188 222.097656 46.671875 C 220.988281 47.730469 220.429688 49.230469 220.429688 51.160156 C 220.429688 52.941406 220.773438 54.246094 221.484375 55.089844 C 222.195312 55.929688 223.1875 56.34375 224.488281 56.34375 C 226.222656 56.34375 227.660156 55.648438 228.832031 54.28125 C 230.003906 52.910156 230.582031 51.046875 230.582031 48.734375 L 230.582031 44.757812 L 227.429688 44.925781 Z M 227.414062 44.925781 " fill-opacity="1" fill-rule="nonzero"/><path fill="#ffffff" d="M 272.632812 19.746094 C 273.226562 19.746094 273.855469 19.777344 274.53125 19.859375 C 275.210938 19.941406 275.886719 20.089844 276.597656 20.304688 L 275.457031 32.945312 C 274.914062 32.78125 274.300781 32.664062 273.640625 32.582031 C 272.964844 32.5 272.171875 32.449219 271.246094 32.449219 C 270.007812 32.449219 268.886719 32.648438 267.878906 33.058594 C 266.871094 33.472656 266.011719 34.082031 265.238281 34.925781 C 264.460938 35.765625 263.898438 36.804688 263.488281 38.078125 C 263.089844 39.347656 262.894531 40.882812 262.894531 42.648438 L 262.894531 65.085938 L 250.578125 65.085938 L 250.578125 20.535156 L 259.96875 20.535156 L 261.753906 27.828125 L 262.316406 27.828125 C 262.960938 26.425781 263.800781 25.105469 264.824219 23.902344 C 265.847656 22.699219 267.035156 21.691406 268.359375 20.914062 C 269.679688 20.140625 271.097656 19.746094 272.617188 19.746094 Z M 272.632812 19.746094 " fill-opacity="1" fill-rule="nonzero"/><path fill="#ffffff" d="M 300.75 3.871094 C 300.105469 4.628906 299.265625 5.519531 298.242188 6.542969 C 297.21875 7.566406 296.113281 8.65625 294.921875 9.777344 C 293.734375 10.898438 292.546875 12.023438 291.355469 13.09375 C 290.167969 14.183594 289.0625 15.140625 288.039062 16.015625 L 279.371094 16.015625 L 279.371094 14.960938 C 280.292969 13.605469 281.203125 12.238281 282.128906 10.867188 C 283.050781 9.496094 283.910156 8.144531 284.71875 6.824219 C 285.527344 5.503906 286.253906 4.25 286.914062 3.0625 L 300.769531 3.0625 L 300.769531 3.871094 Z M 292.808594 65.085938 L 280.492188 65.085938 L 280.492188 20.535156 L 292.808594 20.535156 Z M 292.808594 65.085938 " fill-opacity="1" fill-rule="nonzero"/><path fill="#ffffff" d="M 318.417969 19.746094 C 323.171875 19.746094 326.855469 21.082031 329.480469 23.753906 C 332.105469 26.425781 333.410156 30.402344 333.410156 35.699219 L 333.410156 65.105469 L 324.574219 65.105469 L 322.378906 59.195312 L 322.132812 59.195312 C 321.109375 60.714844 320.019531 61.96875 318.894531 62.960938 C 317.757812 63.964844 316.46875 64.707031 315.050781 65.1875 C 313.613281 65.664062 311.894531 65.914062 309.898438 65.914062 C 307.355469 65.914062 305.257812 65.285156 303.574219 64.015625 C 301.90625 62.746094 300.636719 61.046875 299.761719 58.917969 C 298.886719 56.789062 298.472656 54.394531 298.472656 51.753906 C 298.472656 47.050781 299.859375 43.539062 302.648438 41.179688 C 305.421875 38.835938 309.5 37.546875 314.835938 37.332031 L 321.074219 37.085938 L 321.074219 35.71875 C 321.074219 33.503906 320.644531 31.890625 319.769531 30.867188 C 318.914062 29.84375 317.640625 29.332031 315.957031 29.332031 C 314.503906 29.332031 312.917969 29.613281 311.21875 30.1875 C 309.519531 30.75 307.667969 31.542969 305.671875 32.566406 L 302.269531 23.738281 C 304.480469 22.449219 306.941406 21.460938 309.648438 20.785156 C 312.359375 20.105469 315.261719 19.777344 318.402344 19.777344 Z M 317.9375 44.925781 C 315.511719 45.023438 313.726562 45.617188 312.621094 46.671875 C 311.515625 47.730469 310.953125 49.230469 310.953125 51.160156 C 310.953125 52.941406 311.300781 54.246094 312.011719 55.089844 C 312.722656 55.929688 313.710938 56.34375 315.015625 56.34375 C 316.75 56.34375 318.1875 55.648438 319.359375 54.28125 C 320.53125 52.910156 321.109375 51.046875 321.109375 48.734375 L 321.109375 44.757812 L 317.953125 44.925781 Z M 317.9375 44.925781 " fill-opacity="1" fill-rule="nonzero"/><path fill="#ffffff" d="M 368.34375 65.894531 C 363.917969 65.894531 360.4375 63.867188 357.941406 59.824219 C 355.433594 55.765625 354.179688 50.105469 354.179688 42.8125 C 354.179688 35.519531 355.449219 29.792969 357.992188 25.765625 C 360.535156 21.742188 363.9375 19.726562 368.195312 19.726562 C 369.8125 19.726562 371.25 19.976562 372.539062 20.488281 C 373.824219 21 374.949219 21.722656 375.988281 22.679688 C 377.011719 23.621094 377.902344 24.828125 378.664062 26.277344 L 379.074219 26.277344 C 378.976562 24.660156 378.859375 23.109375 378.746094 21.625 C 378.648438 20.140625 378.582031 18.851562 378.582031 17.78125 L 378.582031 3.523438 L 390.980469 3.523438 L 390.980469 65.085938 L 381.253906 65.085938 L 379.222656 60.152344 L 378.582031 60.152344 C 377.769531 61.390625 376.878906 62.449219 375.90625 63.304688 C 374.933594 64.164062 373.84375 64.824219 372.621094 65.253906 C 371.398438 65.679688 369.980469 65.894531 368.359375 65.894531 Z M 372.472656 55.78125 C 374.734375 55.78125 376.367188 54.839844 377.375 52.941406 C 378.382812 51.0625 378.878906 48.09375 378.878906 44.03125 L 378.878906 41.921875 C 378.878906 37.929688 378.382812 34.957031 377.425781 33.042969 C 376.449219 31.128906 374.800781 30.171875 372.488281 30.171875 C 370.65625 30.171875 369.234375 31.230469 368.230469 33.324219 C 367.222656 35.417969 366.726562 38.554688 366.726562 42.714844 C 366.726562 47.136719 367.222656 50.417969 368.230469 52.5625 C 369.234375 54.707031 370.65625 55.765625 372.488281 55.765625 Z M 372.472656 55.78125 " fill-opacity="1" fill-rule="nonzero"/><path fill="#ffffff" d="M 415.183594 19.808594 C 418.847656 19.808594 421.984375 20.601562 424.59375 22.203125 C 427.1875 23.804688 429.167969 26.097656 430.554688 29.082031 C 431.925781 32.085938 432.617188 35.734375 432.617188 40.054688 L 432.617188 46.375 L 409.355469 46.375 C 409.355469 49.675781 410.097656 52.152344 411.585938 53.835938 C 413.070312 55.5 415.265625 56.34375 418.1875 56.34375 C 420.351562 56.34375 422.382812 56.078125 424.3125 55.535156 C 426.246094 54.988281 428.242188 54.132812 430.355469 52.941406 L 430.355469 62.746094 C 428.359375 63.832031 426.246094 64.625 424.035156 65.136719 C 421.820312 65.648438 419.3125 65.894531 416.503906 65.894531 C 412.226562 65.894531 408.664062 65.023438 405.804688 63.257812 C 402.933594 61.507812 400.769531 58.917969 399.285156 55.515625 C 397.796875 52.117188 397.054688 47.960938 397.054688 43.042969 C 397.054688 38.125 397.765625 33.71875 399.203125 30.289062 C 400.636719 26.855469 402.703125 24.25 405.410156 22.46875 C 408.117188 20.683594 411.371094 19.792969 415.214844 19.792969 Z M 415.496094 29.050781 C 413.765625 29.050781 412.34375 29.742188 411.238281 31.113281 C 410.132812 32.484375 409.519531 34.742188 409.421875 37.878906 L 421.160156 37.878906 C 421.160156 35.996094 420.929688 34.398438 420.484375 33.109375 C 420.019531 31.804688 419.378906 30.816406 418.535156 30.105469 C 417.691406 29.414062 416.6875 29.050781 415.496094 29.050781 Z M 415.496094 29.050781 " fill-opacity="1" fill-rule="nonzero"/><path fill="#ffffff" d="M 198.71875 141.945312 L 195.8125 129.390625 L 180.984375 129.390625 L 178.0625 141.945312 L 164.195312 141.945312 L 179.929688 84.03125 L 196.539062 84.03125 L 212.503906 141.945312 Z M 190.609375 105.167969 C 190.347656 103.929688 190.066406 102.609375 189.800781 101.191406 C 189.539062 99.789062 189.257812 98.386719 188.992188 96.984375 C 188.730469 95.582031 188.496094 94.34375 188.347656 93.253906 C 188.234375 94.34375 188.070312 95.546875 187.820312 96.898438 C 187.574219 98.253906 187.308594 99.605469 187.011719 100.992188 C 186.714844 102.363281 186.433594 103.730469 186.152344 105.066406 L 183.230469 118.433594 L 193.515625 118.433594 L 190.59375 105.152344 Z M 190.609375 105.167969 " fill-opacity="1" fill-rule="nonzero"/><path fill="#ffffff" d="M 242.570312 128.582031 C 242.570312 131.601562 241.972656 134.175781 240.785156 136.269531 C 239.597656 138.367188 237.832031 139.984375 235.46875 141.089844 C 233.125 142.195312 230.203125 142.738281 226.6875 142.738281 C 224.257812 142.738281 221.964844 142.558594 219.800781 142.175781 C 217.636719 141.796875 215.558594 141.15625 213.558594 140.230469 L 213.558594 129.042969 C 215.394531 130.066406 217.40625 130.925781 219.601562 131.601562 C 221.78125 132.277344 223.863281 132.605469 225.792969 132.605469 C 227.363281 132.605469 228.535156 132.34375 229.328125 131.796875 C 230.105469 131.253906 230.5 130.414062 230.5 129.289062 C 230.5 128.628906 230.335938 128.035156 229.972656 127.460938 C 229.625 126.898438 228.898438 126.269531 227.824219 125.59375 C 226.734375 124.917969 225.101562 124.058594 222.886719 123.035156 C 220.839844 122.0625 219.109375 120.941406 217.703125 119.671875 C 216.300781 118.402344 215.246094 116.933594 214.550781 115.25 C 213.859375 113.582031 213.496094 111.636719 213.496094 109.425781 C 213.496094 105.316406 214.863281 102.148438 217.589844 99.902344 C 220.3125 97.660156 224.027344 96.539062 228.734375 96.539062 C 231.160156 96.539062 233.4375 96.851562 235.585938 97.460938 C 237.714844 98.089844 239.894531 98.996094 242.105469 100.183594 L 238.789062 109.175781 C 237.269531 108.253906 235.683594 107.492188 234 106.898438 C 232.332031 106.304688 230.730469 106.007812 229.230469 106.007812 C 227.992188 106.007812 227.015625 106.238281 226.339844 106.683594 C 225.664062 107.148438 225.332031 107.839844 225.332031 108.746094 C 225.332031 109.390625 225.496094 109.953125 225.859375 110.449219 C 226.207031 110.941406 226.933594 111.488281 228.007812 112.113281 C 229.097656 112.722656 230.648438 113.582031 232.710938 114.671875 C 234.777344 115.761719 236.527344 116.898438 237.980469 118.121094 C 239.433594 119.324219 240.570312 120.777344 241.378906 122.460938 C 242.1875 124.144531 242.601562 126.15625 242.601562 128.53125 Z M 242.570312 128.582031 " fill-opacity="1" fill-rule="nonzero"/><path fill="#ffffff" d="M 283.894531 97.394531 L 283.894531 141.945312 L 274.335938 141.945312 L 272.882812 136.351562 L 272.238281 136.351562 C 271.476562 137.804688 270.539062 139.007812 269.429688 139.949219 C 268.324219 140.890625 267.085938 141.601562 265.699219 142.0625 C 264.3125 142.523438 262.808594 142.738281 261.191406 142.738281 C 258.433594 142.738281 256.074219 142.128906 254.109375 140.875 C 252.128906 139.636719 250.625 137.789062 249.601562 135.363281 C 248.578125 132.9375 248.066406 129.933594 248.066406 126.371094 L 248.066406 97.378906 L 260.382812 97.378906 L 260.382812 122.722656 C 260.382812 125.808594 260.730469 128.136719 261.441406 129.734375 C 262.148438 131.335938 263.324219 132.128906 265.007812 132.128906 C 266.839844 132.128906 268.242188 131.617188 269.183594 130.59375 C 270.125 129.570312 270.769531 128.085938 271.082031 126.140625 C 271.414062 124.191406 271.5625 121.847656 271.5625 119.09375 L 271.5625 97.378906 L 283.878906 97.378906 Z M 283.894531 97.394531 " fill-opacity="1" fill-rule="nonzero"/><path fill="#ffffff" d="M 314.453125 96.585938 C 318.550781 96.585938 321.769531 97.941406 324.097656 100.664062 C 326.425781 103.386719 327.582031 107.425781 327.582031 112.773438 L 327.582031 141.929688 L 315.179688 141.929688 L 315.179688 116.421875 C 315.179688 113.402344 314.835938 111.105469 314.125 109.539062 C 313.414062 107.972656 312.160156 107.179688 310.308594 107.179688 C 307.933594 107.179688 306.296875 108.269531 305.40625 110.414062 C 304.515625 112.574219 304.070312 116.171875 304.070312 121.1875 L 304.070312 141.929688 L 291.671875 141.929688 L 291.671875 97.378906 L 301.230469 97.378906 L 302.765625 103.136719 L 303.410156 103.136719 C 304.167969 101.683594 305.078125 100.464844 306.132812 99.492188 C 307.191406 98.515625 308.410156 97.792969 309.816406 97.296875 C 311.21875 96.816406 312.753906 96.570312 314.4375 96.570312 Z M 314.453125 96.585938 " fill-opacity="1" fill-rule="nonzero"/><path fill="#ffffff" d="M 352.542969 132.394531 C 353.519531 132.394531 354.507812 132.277344 355.546875 132.03125 C 356.574219 131.78125 357.660156 131.453125 358.785156 131.023438 L 358.785156 140.496094 C 357.429688 141.1875 355.929688 141.75 354.246094 142.160156 C 352.578125 142.574219 350.746094 142.753906 348.730469 142.753906 C 346.023438 142.753906 343.761719 142.242188 341.925781 141.21875 C 340.09375 140.199219 338.707031 138.597656 337.800781 136.433594 C 336.875 134.273438 336.429688 131.4375 336.429688 127.9375 L 336.429688 107.195312 L 331.660156 107.195312 L 331.660156 101.207031 L 337.488281 97.726562 L 340.558594 88.253906 L 348.664062 88.253906 L 348.664062 97.496094 L 358.222656 97.496094 L 358.222656 107.214844 L 348.664062 107.214844 L 348.664062 127.871094 C 348.664062 129.390625 349.011719 130.511719 349.6875 131.269531 C 350.363281 132.03125 351.320312 132.410156 352.558594 132.410156 Z M 352.542969 132.394531 " fill-opacity="1" fill-rule="nonzero"/><path fill="#ffffff" d="M 399.695312 119.589844 C 399.695312 122.773438 399.332031 125.777344 398.605469 128.582031 C 397.882812 131.386719 396.742188 133.863281 395.207031 135.988281 C 393.671875 138.117188 391.707031 139.785156 389.328125 140.972656 C 386.953125 142.160156 384.113281 142.753906 380.824219 142.753906 C 377.753906 142.753906 375.03125 142.160156 372.667969 140.972656 C 370.324219 139.785156 368.359375 138.136719 366.792969 136.039062 C 365.222656 133.925781 364.035156 131.46875 363.226562 128.664062 C 362.417969 125.859375 362.003906 122.839844 362.003906 119.589844 C 362.003906 115 362.699219 110.992188 364.066406 107.558594 C 365.4375 104.128906 367.535156 101.4375 370.359375 99.492188 C 373.164062 97.542969 376.699219 96.585938 380.972656 96.585938 C 384.707031 96.585938 387.976562 97.476562 390.78125 99.261719 C 393.589844 101.042969 395.785156 103.648438 397.335938 107.082031 C 398.886719 110.511719 399.679688 114.6875 399.679688 119.589844 Z M 374.585938 119.671875 C 374.585938 122.476562 374.800781 124.867188 375.230469 126.832031 C 375.65625 128.796875 376.351562 130.296875 377.292969 131.289062 C 378.234375 132.292969 379.4375 132.789062 380.910156 132.789062 C 382.378906 132.789062 383.632812 132.277344 384.558594 131.289062 C 385.480469 130.296875 386.140625 128.8125 386.539062 126.832031 C 386.933594 124.851562 387.148438 122.441406 387.148438 119.589844 C 387.148438 116.734375 386.953125 114.273438 386.539062 112.378906 C 386.125 110.480469 385.464844 109.0625 384.558594 108.085938 C 383.648438 107.113281 382.425781 106.636719 380.910156 106.636719 C 378.695312 106.636719 377.078125 107.726562 376.085938 109.871094 C 375.097656 112.015625 374.585938 115.296875 374.585938 119.671875 Z M 374.585938 119.671875 " fill-opacity="1" fill-rule="nonzero"/><path fill="#ffffff" d="M 432.851562 128.582031 C 432.851562 131.601562 432.253906 134.175781 431.066406 136.269531 C 429.878906 138.367188 428.109375 139.984375 425.765625 141.089844 C 423.421875 142.195312 420.484375 142.738281 416.96875 142.738281 C 414.539062 142.738281 412.246094 142.558594 410.082031 142.175781 C 407.917969 141.796875 405.839844 141.15625 403.839844 140.230469 L 403.839844 129.042969 C 405.675781 130.066406 407.6875 130.925781 409.882812 131.601562 C 412.078125 132.277344 414.144531 132.605469 416.09375 132.605469 C 417.660156 132.605469 418.832031 132.34375 419.609375 131.796875 C 420.382812 131.253906 420.796875 130.414062 420.796875 129.289062 C 420.796875 128.628906 420.617188 128.035156 420.269531 127.460938 C 419.921875 126.898438 419.195312 126.269531 418.121094 125.59375 C 417.03125 124.917969 415.398438 124.058594 413.1875 123.035156 C 411.140625 122.0625 409.40625 120.941406 408 119.671875 C 406.597656 118.402344 405.542969 116.933594 404.847656 115.25 C 404.15625 113.582031 403.792969 111.636719 403.792969 109.425781 C 403.792969 105.316406 405.144531 102.148438 407.886719 99.902344 C 410.609375 97.660156 414.324219 96.539062 419.03125 96.539062 C 421.457031 96.539062 423.734375 96.851562 425.882812 97.460938 C 428.011719 98.089844 430.191406 98.996094 432.402344 100.183594 L 429.085938 109.175781 C 427.566406 108.253906 425.980469 107.492188 424.3125 106.898438 C 422.628906 106.304688 421.042969 106.007812 419.527344 106.007812 C 418.289062 106.007812 417.328125 106.238281 416.652344 106.683594 C 415.976562 107.128906 415.628906 107.839844 415.628906 108.746094 C 415.628906 109.390625 415.8125 109.953125 416.15625 110.449219 C 416.503906 110.941406 417.230469 111.488281 418.304688 112.113281 C 419.378906 112.722656 420.945312 113.582031 422.992188 114.671875 C 425.039062 115.761719 426.808594 116.898438 428.261719 118.121094 C 429.710938 119.324219 430.851562 120.777344 431.660156 122.460938 C 432.46875 124.144531 432.867188 126.15625 432.867188 128.53125 Z M 432.851562 128.582031 " fill-opacity="1" fill-rule="nonzero"/><path fill="#ffffff" d="M 38.5 218.789062 L 9.722656 218.789062 L 9.722656 160.953125 L 38.484375 160.953125 L 38.484375 171.648438 L 22.355469 171.648438 L 22.355469 183.476562 L 37.347656 183.476562 L 37.347656 194.171875 L 22.355469 194.171875 L 22.355469 208.03125 L 38.484375 208.03125 L 38.484375 218.804688 Z M 38.5 218.789062 " fill-opacity="1" fill-rule="nonzero"/><path fill="#ffffff" d="M 72.464844 205.421875 C 72.464844 208.441406 71.871094 211.015625 70.679688 213.113281 C 69.492188 215.207031 67.726562 216.824219 65.363281 217.929688 C 63.019531 219.035156 60.097656 219.597656 56.582031 219.597656 C 54.152344 219.597656 51.859375 219.417969 49.695312 219.035156 C 47.53125 218.65625 45.453125 218.011719 43.453125 217.089844 L 43.453125 205.917969 C 45.289062 206.941406 47.300781 207.785156 49.496094 208.476562 C 51.675781 209.152344 53.757812 209.5 55.6875 209.5 C 57.257812 209.5 58.429688 209.234375 59.222656 208.691406 C 60.015625 208.144531 60.394531 207.320312 60.394531 206.183594 C 60.394531 205.539062 60.230469 204.929688 59.867188 204.367188 C 59.519531 203.789062 58.792969 203.179688 57.71875 202.503906 C 56.628906 201.828125 54.996094 200.96875 52.785156 199.945312 C 50.734375 198.972656 49.003906 197.851562 47.597656 196.578125 C 46.195312 195.308594 45.140625 193.839844 44.445312 192.15625 C 43.753906 190.472656 43.390625 188.542969 43.390625 186.316406 C 43.390625 182.222656 44.757812 179.039062 47.484375 176.796875 C 50.207031 174.550781 53.921875 173.429688 58.628906 173.429688 C 61.054688 173.429688 63.332031 173.742188 65.480469 174.371094 C 67.625 174.996094 69.789062 175.90625 72 177.09375 L 68.683594 186.085938 C 67.164062 185.160156 65.578125 184.417969 63.894531 183.824219 C 62.226562 183.230469 60.625 182.933594 59.125 182.933594 C 57.886719 182.933594 56.910156 183.164062 56.234375 183.625 C 55.558594 184.089844 55.226562 184.765625 55.226562 185.6875 C 55.226562 186.332031 55.390625 186.910156 55.753906 187.390625 C 56.101562 187.882812 56.828125 188.429688 57.902344 189.054688 C 58.992188 189.683594 60.542969 190.523438 62.605469 191.613281 C 64.652344 192.683594 66.421875 193.839844 67.875 195.042969 C 69.328125 196.265625 70.464844 197.703125 71.273438 199.382812 C 72.082031 201.066406 72.496094 203.082031 72.496094 205.457031 Z M 72.464844 205.421875 " fill-opacity="1" fill-rule="nonzero"/><path fill="#ffffff" d="M 95.394531 209.234375 C 96.371094 209.234375 97.359375 209.121094 98.382812 208.871094 C 99.410156 208.625 100.496094 208.292969 101.621094 207.847656 L 101.621094 217.320312 C 100.265625 218.03125 98.746094 218.574219 97.082031 218.988281 C 95.394531 219.398438 93.5625 219.597656 91.566406 219.597656 C 88.859375 219.597656 86.597656 219.085938 84.765625 218.0625 C 82.929688 217.039062 81.542969 215.441406 80.636719 213.292969 C 79.710938 211.132812 79.25 208.292969 79.25 204.796875 L 79.25 184.054688 L 74.476562 184.054688 L 74.476562 178.066406 L 80.304688 174.585938 L 83.394531 165.113281 L 91.5 165.113281 L 91.5 174.351562 L 101.058594 174.351562 L 101.058594 184.070312 L 91.5 184.070312 L 91.5 204.730469 C 91.5 206.25 91.832031 207.371094 92.507812 208.128906 C 93.183594 208.890625 94.140625 209.25 95.394531 209.25 Z M 95.394531 209.234375 " fill-opacity="1" fill-rule="nonzero"/><path fill="#ffffff" d="M 142.320312 174.253906 L 142.320312 218.804688 L 132.757812 218.804688 L 131.304688 213.210938 L 130.664062 213.210938 C 129.902344 214.664062 128.960938 215.867188 127.855469 216.808594 C 126.75 217.75 125.511719 218.460938 124.125 218.921875 C 122.738281 219.382812 121.234375 219.613281 119.617188 219.613281 C 116.859375 219.613281 114.5 218.988281 112.535156 217.75 C 110.554688 216.511719 109.050781 214.679688 108.027344 212.238281 C 107.003906 209.8125 106.492188 206.808594 106.492188 203.246094 L 106.492188 174.253906 L 118.808594 174.253906 L 118.808594 199.597656 C 118.808594 202.667969 119.15625 205.011719 119.863281 206.59375 C 120.558594 208.195312 121.746094 208.988281 123.429688 208.988281 C 125.261719 208.988281 126.667969 208.476562 127.609375 207.453125 C 128.550781 206.429688 129.191406 204.945312 129.507812 203 C 129.835938 201.050781 129.984375 198.707031 129.984375 195.953125 L 129.984375 174.253906 Z M 142.320312 174.253906 " fill-opacity="1" fill-rule="nonzero"/><path fill="#ffffff" d="M 162.578125 219.597656 C 158.152344 219.597656 154.667969 217.566406 152.160156 213.527344 C 149.648438 209.484375 148.394531 203.808594 148.394531 196.511719 C 148.394531 189.21875 149.664062 183.476562 152.207031 179.453125 C 154.75 175.441406 158.152344 173.414062 162.410156 173.414062 C 164.03125 173.414062 165.484375 173.660156 166.753906 174.171875 C 168.023438 174.683594 169.164062 175.425781 170.1875 176.367188 C 171.210938 177.308594 172.101562 178.511719 172.863281 179.964844 L 173.273438 179.964844 C 173.160156 178.347656 173.0625 176.796875 172.945312 175.308594 C 172.828125 173.824219 172.78125 172.539062 172.78125 171.464844 L 172.78125 157.210938 L 185.179688 157.210938 L 185.179688 218.773438 L 175.453125 218.773438 L 173.425781 213.839844 L 172.78125 213.839844 C 171.972656 215.09375 171.078125 216.132812 170.105469 216.992188 C 169.132812 217.847656 168.042969 218.507812 166.820312 218.9375 C 165.613281 219.367188 164.179688 219.582031 162.558594 219.582031 Z M 166.703125 209.484375 C 168.984375 209.484375 170.617188 208.542969 171.609375 206.644531 C 172.597656 204.746094 173.109375 201.792969 173.109375 197.734375 L 173.109375 195.621094 C 173.109375 191.628906 172.613281 188.675781 171.65625 186.761719 C 170.699219 184.847656 169.03125 183.875 166.722656 183.875 C 164.886719 183.875 163.46875 184.929688 162.460938 187.027344 C 161.453125 189.121094 160.957031 192.273438 160.957031 196.429688 C 160.957031 200.851562 161.453125 204.136719 162.460938 206.265625 C 163.46875 208.394531 164.871094 209.464844 166.722656 209.464844 Z M 166.703125 209.484375 " fill-opacity="1" fill-rule="nonzero"/><path fill="#ffffff" d="M 199.277344 156.582031 C 201.390625 156.582031 203.011719 157.09375 204.148438 158.117188 C 205.273438 159.140625 205.851562 160.757812 205.851562 162.96875 C 205.851562 165.179688 205.273438 166.796875 204.101562 167.785156 C 202.945312 168.777344 201.328125 169.289062 199.277344 169.289062 C 197.230469 169.289062 195.53125 168.777344 194.375 167.785156 C 193.203125 166.78125 192.625 165.179688 192.625 162.96875 C 192.625 160.757812 193.203125 159.058594 194.324219 158.066406 C 195.464844 157.0625 197.117188 156.566406 199.261719 156.566406 Z M 205.371094 174.253906 L 205.371094 218.804688 L 193.054688 218.804688 L 193.054688 174.253906 Z M 205.371094 174.253906 " fill-opacity="1" fill-rule="nonzero"/><path fill="#ffffff" d="M 230.980469 173.429688 C 235.734375 173.429688 239.414062 174.765625 242.039062 177.4375 C 244.664062 180.113281 245.96875 184.089844 245.96875 189.386719 L 245.96875 218.789062 L 237.136719 218.789062 L 234.941406 212.882812 L 234.695312 212.882812 C 233.667969 214.398438 232.582031 215.652344 231.457031 216.644531 C 230.335938 217.652344 229.046875 218.375 227.609375 218.871094 C 226.175781 219.367188 224.457031 219.597656 222.460938 219.597656 C 219.917969 219.597656 217.804688 218.953125 216.136719 217.699219 C 214.453125 216.429688 213.179688 214.730469 212.320312 212.601562 C 211.464844 210.472656 211.019531 208.082031 211.019531 205.441406 C 211.019531 200.753906 212.40625 197.222656 215.195312 194.878906 C 217.984375 192.519531 222.046875 191.25 227.394531 191.035156 L 233.636719 190.789062 L 233.636719 189.417969 C 233.636719 187.207031 233.207031 185.589844 232.347656 184.566406 C 231.492188 183.542969 230.21875 183.03125 228.535156 183.03125 C 227.082031 183.03125 225.496094 183.3125 223.796875 183.890625 C 222.097656 184.453125 220.230469 185.242188 218.25 186.285156 L 214.847656 177.457031 C 217.058594 176.152344 219.519531 175.179688 222.226562 174.5 C 224.9375 173.824219 227.839844 173.480469 230.980469 173.480469 Z M 230.484375 198.625 C 228.054688 198.722656 226.289062 199.300781 225.183594 200.359375 C 224.078125 201.414062 223.515625 202.914062 223.515625 204.863281 C 223.515625 206.644531 223.863281 207.949219 224.574219 208.789062 C 225.265625 209.632812 226.273438 210.042969 227.5625 210.042969 C 229.292969 210.042969 230.730469 209.367188 231.902344 207.980469 C 233.058594 206.613281 233.636719 204.761719 233.636719 202.4375 L 233.636719 198.460938 Z M 230.484375 198.625 " fill-opacity="1" fill-rule="nonzero"/><path fill="#ffffff" d="M 276.367188 173.429688 C 280.460938 173.429688 283.679688 174.78125 286.007812 177.519531 C 288.335938 180.242188 289.492188 184.285156 289.492188 189.632812 L 289.492188 218.789062 L 277.09375 218.789062 L 277.09375 193.28125 C 277.09375 190.257812 276.746094 187.964844 276.035156 186.398438 C 275.324219 184.832031 274.070312 184.054688 272.222656 184.054688 C 269.84375 184.054688 268.210938 185.144531 267.316406 187.289062 C 266.425781 189.453125 265.980469 193.03125 265.980469 198.066406 L 265.980469 218.804688 L 253.582031 218.804688 L 253.582031 174.253906 L 263.140625 174.253906 L 264.675781 179.996094 L 265.320312 179.996094 C 266.078125 178.542969 266.988281 177.324219 268.042969 176.351562 C 269.101562 175.375 270.324219 174.648438 271.726562 174.15625 C 273.128906 173.660156 274.664062 173.429688 276.347656 173.429688 Z M 276.367188 173.429688 " fill-opacity="1" fill-rule="nonzero"/><path fill="#ffffff" d="M 314.453125 209.234375 C 315.429688 209.234375 316.417969 209.121094 317.441406 208.871094 C 318.464844 208.625 319.554688 208.292969 320.679688 207.847656 L 320.679688 217.320312 C 319.324219 218.03125 317.804688 218.574219 316.136719 218.988281 C 314.453125 219.398438 312.621094 219.597656 310.625 219.597656 C 307.917969 219.597656 305.65625 219.085938 303.820312 218.0625 C 301.988281 217.039062 300.601562 215.441406 299.695312 213.292969 C 298.769531 211.132812 298.308594 208.292969 298.308594 204.796875 L 298.308594 184.054688 L 293.535156 184.054688 L 293.535156 178.066406 L 299.363281 174.585938 L 302.453125 165.113281 L 310.558594 165.113281 L 310.558594 174.351562 L 320.117188 174.351562 L 320.117188 184.070312 L 310.558594 184.070312 L 310.558594 204.730469 C 310.558594 206.25 310.886719 207.371094 311.566406 208.128906 C 312.242188 208.890625 313.199219 209.25 314.453125 209.25 Z M 314.453125 209.234375 " fill-opacity="1" fill-rule="nonzero"/><path fill="#ffffff" d="M 331.957031 156.582031 C 334.070312 156.582031 335.6875 157.09375 336.808594 158.117188 C 337.949219 159.140625 338.511719 160.757812 338.511719 162.96875 C 338.511719 165.179688 337.933594 166.796875 336.777344 167.785156 C 335.605469 168.777344 334.003906 169.289062 331.957031 169.289062 C 329.90625 169.289062 328.207031 168.777344 327.050781 167.785156 C 325.894531 166.78125 325.316406 165.179688 325.316406 162.96875 C 325.316406 160.757812 325.878906 159.058594 327.019531 158.066406 C 328.15625 157.078125 329.808594 156.566406 331.957031 156.566406 Z M 338.03125 174.253906 L 338.03125 218.804688 L 325.714844 218.804688 L 325.714844 174.253906 Z M 338.03125 174.253906 " fill-opacity="1" fill-rule="nonzero"/><path fill="#ffffff" d="M 345.972656 157.226562 L 358.371094 157.226562 L 358.371094 218.789062 L 345.972656 218.789062 Z M 345.972656 157.226562 " fill-opacity="1" fill-rule="nonzero"/><path fill="#ffffff" d="M 382.609375 173.511719 C 386.273438 173.511719 389.410156 174.304688 392.019531 175.90625 C 394.613281 177.488281 396.59375 179.796875 397.980469 182.785156 C 399.367188 185.773438 400.042969 189.433594 400.042969 193.757812 L 400.042969 200.078125 L 376.78125 200.078125 C 376.78125 203.378906 377.523438 205.851562 379.007812 207.535156 C 380.496094 209.21875 382.691406 210.042969 385.613281 210.042969 C 387.777344 210.042969 389.808594 209.78125 391.738281 209.234375 C 393.65625 208.707031 395.667969 207.832031 397.78125 206.644531 L 397.78125 216.445312 C 395.785156 217.535156 393.671875 218.308594 391.457031 218.839844 C 389.246094 219.351562 386.738281 219.597656 383.929688 219.597656 C 379.652344 219.597656 376.085938 218.722656 373.230469 216.957031 C 370.359375 215.207031 368.195312 212.617188 366.710938 209.21875 C 365.222656 205.820312 364.480469 201.660156 364.480469 196.746094 C 364.480469 191.828125 365.191406 187.421875 366.628906 183.988281 C 368.0625 180.558594 370.128906 177.949219 372.835938 176.167969 C 375.542969 174.386719 378.796875 173.496094 382.640625 173.496094 Z M 382.921875 182.753906 C 381.1875 182.753906 379.769531 183.429688 378.664062 184.816406 C 377.558594 186.199219 376.945312 188.445312 376.847656 191.578125 L 388.585938 191.578125 C 388.585938 189.683594 388.355469 188.097656 387.910156 186.792969 C 387.464844 185.492188 386.800781 184.5 385.960938 183.808594 C 385.117188 183.097656 384.113281 182.753906 382.921875 182.753906 Z M 382.921875 182.753906 " fill-opacity="1" fill-rule="nonzero"/><path fill="#ffffff" d="M 432.851562 205.421875 C 432.851562 208.441406 432.253906 211.015625 431.066406 213.113281 C 429.878906 215.207031 428.109375 216.824219 425.765625 217.929688 C 423.421875 219.035156 420.484375 219.597656 416.96875 219.597656 C 414.539062 219.597656 412.246094 219.417969 410.082031 219.035156 C 407.917969 218.65625 405.839844 218.011719 403.839844 217.089844 L 403.839844 205.917969 C 405.675781 206.941406 407.6875 207.785156 409.882812 208.476562 C 412.078125 209.167969 414.144531 209.5 416.09375 209.5 C 417.660156 209.5 418.832031 209.234375 419.609375 208.691406 C 420.382812 208.144531 420.796875 207.320312 420.796875 206.183594 C 420.796875 205.539062 420.617188 204.929688 420.269531 204.367188 C 419.921875 203.789062 419.195312 203.179688 418.121094 202.503906 C 417.050781 201.828125 415.398438 200.96875 413.1875 199.945312 C 411.140625 198.972656 409.40625 197.851562 408 196.578125 C 406.597656 195.308594 405.542969 193.839844 404.847656 192.15625 C 404.15625 190.472656 403.792969 188.542969 403.792969 186.316406 C 403.792969 182.222656 405.144531 179.039062 407.886719 176.796875 C 410.609375 174.550781 414.324219 173.429688 419.03125 173.429688 C 421.457031 173.429688 423.734375 173.742188 425.882812 174.371094 C 428.011719 174.996094 430.191406 175.90625 432.402344 177.09375 L 429.085938 186.085938 C 427.566406 185.160156 425.980469 184.417969 424.3125 183.824219 C 422.628906 183.230469 421.042969 182.933594 419.527344 182.933594 C 418.289062 182.933594 417.328125 183.164062 416.652344 183.625 C 415.976562 184.089844 415.628906 184.765625 415.628906 185.6875 C 415.628906 186.332031 415.8125 186.910156 416.15625 187.390625 C 416.503906 187.882812 417.230469 188.429688 418.304688 189.054688 C 419.378906 189.683594 420.945312 190.523438 422.992188 191.613281 C 425.039062 192.683594 426.808594 193.839844 428.261719 195.042969 C 429.710938 196.265625 430.851562 197.703125 431.660156 199.382812 C 432.46875 201.066406 432.867188 203.082031 432.867188 205.457031 Z M 432.851562 205.421875 " fill-opacity="1" fill-rule="nonzero"/><path fill="#ffffff" d="M 38.503906 218.789062 L 9.726562 218.789062 L 9.726562 160.953125 L 38.488281 160.953125 L 38.488281 171.648438 L 22.359375 171.648438 L 22.359375 183.476562 L 37.347656 183.476562 L 37.347656 194.171875 L 22.359375 194.171875 L 22.359375 208.03125 L 38.488281 208.03125 L 38.488281 218.804688 Z M 38.503906 218.789062 " fill-opacity="1" fill-rule="nonzero"/><path fill="#ffffff" d="M 72.464844 205.421875 C 72.464844 208.441406 71.871094 211.015625 70.683594 213.113281 C 69.496094 215.207031 67.726562 216.824219 65.367188 217.929688 C 63.023438 219.035156 60.101562 219.597656 56.582031 219.597656 C 54.15625 219.597656 51.863281 219.417969 49.699219 219.035156 C 47.535156 218.65625 45.457031 218.011719 43.457031 217.089844 L 43.457031 205.917969 C 45.289062 206.941406 47.304688 207.785156 49.5 208.476562 C 51.679688 209.152344 53.761719 209.5 55.691406 209.5 C 57.261719 209.5 58.433594 209.234375 59.226562 208.691406 C 60.015625 208.144531 60.398438 207.320312 60.398438 206.183594 C 60.398438 205.539062 60.230469 204.929688 59.867188 204.367188 C 59.523438 203.789062 58.796875 203.179688 57.722656 202.503906 C 56.632812 201.828125 55 200.96875 52.785156 199.945312 C 50.738281 198.972656 49.003906 197.851562 47.601562 196.578125 C 46.199219 195.308594 45.140625 193.839844 44.449219 192.15625 C 43.753906 190.472656 43.390625 188.542969 43.390625 186.316406 C 43.390625 182.222656 44.761719 179.039062 47.484375 176.796875 C 50.210938 174.550781 53.925781 173.429688 58.628906 173.429688 C 61.058594 173.429688 63.335938 173.742188 65.480469 174.371094 C 67.628906 174.996094 69.792969 175.90625 72.003906 177.09375 L 68.683594 186.085938 C 67.167969 185.160156 65.582031 184.417969 63.898438 183.824219 C 62.230469 183.230469 60.628906 182.933594 59.125 182.933594 C 57.886719 182.933594 56.914062 183.164062 56.238281 183.625 C 55.558594 184.089844 55.230469 184.765625 55.230469 185.6875 C 55.230469 186.332031 55.394531 186.910156 55.757812 187.390625 C 56.105469 187.882812 56.832031 188.429688 57.902344 189.054688 C 58.992188 189.683594 60.546875 190.523438 62.609375 191.613281 C 64.65625 192.683594 66.421875 193.839844 67.875 195.046875 C 69.328125 196.265625 70.46875 197.703125 71.277344 199.382812 C 72.085938 201.066406 72.5 203.082031 72.5 205.457031 Z M 72.464844 205.421875 " fill-opacity="1" fill-rule="nonzero"/><path fill="#ffffff" d="M 95.398438 209.234375 C 96.375 209.234375 97.363281 209.121094 98.386719 208.871094 C 99.410156 208.625 100.5 208.292969 101.625 207.847656 L 101.625 217.320312 C 100.269531 218.03125 98.75 218.574219 97.082031 218.988281 C 95.398438 219.398438 93.566406 219.597656 91.570312 219.597656 C 88.859375 219.597656 86.597656 219.085938 84.765625 218.0625 C 82.933594 217.039062 81.546875 215.441406 80.640625 213.292969 C 79.714844 211.132812 79.253906 208.292969 79.253906 204.796875 L 79.253906 184.054688 L 74.480469 184.054688 L 74.480469 178.066406 L 80.308594 174.585938 L 83.394531 165.113281 L 91.503906 165.113281 L 91.503906 174.351562 L 101.0625 174.351562 L 101.0625 184.070312 L 91.503906 184.070312 L 91.503906 204.730469 C 91.503906 206.25 91.832031 207.371094 92.507812 208.128906 C 93.1875 208.890625 94.144531 209.25 95.398438 209.25 Z M 95.398438 209.234375 " fill-opacity="1" fill-rule="nonzero"/><path fill="#ffffff" d="M 142.320312 174.253906 L 142.320312 218.804688 L 132.761719 218.804688 L 131.308594 213.210938 L 130.664062 213.210938 C 129.90625 214.664062 128.964844 215.867188 127.859375 216.808594 C 126.753906 217.75 125.515625 218.460938 124.125 218.921875 C 122.738281 219.382812 121.238281 219.613281 119.621094 219.613281 C 116.863281 219.613281 114.5 218.988281 112.535156 217.75 C 110.554688 216.511719 109.054688 214.679688 108.03125 212.238281 C 107.003906 209.8125 106.492188 206.808594 106.492188 203.246094 L 106.492188 174.253906 L 118.8125 174.253906 L 118.8125 199.597656 C 118.8125 202.667969 119.15625 205.011719 119.867188 206.59375 C 120.5625 208.195312 121.75 208.988281 123.433594 208.988281 C 125.265625 208.988281 126.667969 208.476562 127.609375 207.453125 C 128.550781 206.429688 129.195312 204.945312 129.507812 203 C 129.839844 201.050781 129.988281 198.707031 129.988281 195.953125 L 129.988281 174.253906 Z M 142.320312 174.253906 " fill-opacity="1" fill-rule="nonzero"/><g clip-path="url(#c9f684fe0e)"><path fill="#ffffff" d="M 162.578125 219.597656 C 158.15625 219.597656 154.671875 217.566406 152.160156 213.527344 C 149.652344 209.484375 148.398438 203.808594 148.398438 196.511719 C 148.398438 189.21875 149.667969 183.476562 152.210938 179.453125 C 154.753906 175.441406 158.15625 173.414062 162.414062 173.414062 C 164.03125 173.414062 165.484375 173.660156 166.757812 174.171875 C 168.027344 174.683594 169.167969 175.425781 170.191406 176.367188 C 171.214844 177.308594 172.105469 178.511719 172.863281 179.964844 L 173.277344 179.964844 C 173.164062 178.347656 173.0625 176.796875 172.949219 175.308594 C 172.832031 173.824219 172.78125 172.539062 172.78125 171.464844 L 172.78125 157.210938 L 185.183594 157.210938 L 185.183594 218.773438 L 175.457031 218.773438 L 173.425781 213.839844 L 172.78125 213.839844 C 171.972656 215.09375 171.082031 216.132812 170.109375 216.992188 C 169.132812 217.847656 168.042969 218.507812 166.824219 218.9375 C 165.617188 219.367188 164.179688 219.582031 162.5625 219.582031 Z M 166.707031 209.484375 C 168.984375 209.484375 170.621094 208.542969 171.609375 206.644531 C 172.601562 204.746094 173.113281 201.792969 173.113281 197.734375 L 173.113281 195.621094 C 173.113281 191.628906 172.617188 188.675781 171.660156 186.761719 C 170.703125 184.847656 169.035156 183.875 166.722656 183.875 C 164.890625 183.875 163.472656 184.929688 162.464844 187.027344 C 161.457031 189.121094 160.960938 192.273438 160.960938 196.429688 C 160.960938 200.851562 161.457031 204.136719 162.464844 206.265625 C 163.472656 208.394531 164.875 209.464844 166.722656 209.464844 Z M 166.707031 209.484375 " fill-opacity="1" fill-rule="nonzero"/></g><g clip-path="url(#3e5da78b16)"><path fill="#ffffff" d="M 199.28125 156.582031 C 201.394531 156.582031 203.011719 157.09375 204.152344 158.117188 C 205.273438 159.140625 205.851562 160.757812 205.851562 162.96875 C 205.851562 165.179688 205.273438 166.796875 204.101562 167.785156 C 202.945312 168.777344 201.328125 169.289062 199.28125 169.289062 C 197.234375 169.289062 195.535156 168.777344 194.378906 167.785156 C 193.207031 166.78125 192.628906 165.179688 192.628906 162.96875 C 192.628906 160.757812 193.207031 159.058594 194.328125 158.066406 C 195.46875 157.0625 197.117188 156.566406 199.265625 156.566406 Z M 205.375 174.253906 L 205.375 218.804688 L 193.058594 218.804688 L 193.058594 174.253906 Z M 205.375 174.253906 " fill-opacity="1" fill-rule="nonzero"/></g><path fill="#ffffff" d="M 230.980469 173.429688 C 235.734375 173.429688 239.417969 174.765625 242.042969 177.4375 C 244.667969 180.113281 245.972656 184.089844 245.972656 189.386719 L 245.972656 218.789062 L 237.140625 218.789062 L 234.945312 212.882812 L 234.695312 212.882812 C 233.671875 214.398438 232.582031 215.652344 231.460938 216.644531 C 230.335938 217.652344 229.050781 218.375 227.613281 218.871094 C 226.175781 219.367188 224.460938 219.597656 222.460938 219.597656 C 219.917969 219.597656 217.804688 218.953125 216.136719 217.699219 C 214.453125 216.429688 213.183594 214.730469 212.324219 212.601562 C 211.464844 210.472656 211.019531 208.082031 211.019531 205.441406 C 211.019531 200.753906 212.40625 197.222656 215.199219 194.878906 C 217.988281 192.519531 222.050781 191.25 227.398438 191.035156 L 233.640625 190.789062 L 233.640625 189.417969 C 233.640625 187.207031 233.210938 185.589844 232.351562 184.566406 C 231.492188 183.542969 230.222656 183.03125 228.539062 183.03125 C 227.085938 183.03125 225.5 183.3125 223.800781 183.890625 C 222.097656 184.453125 220.234375 185.242188 218.25 186.285156 L 214.851562 177.457031 C 217.0625 176.152344 219.523438 175.179688 222.230469 174.503906 C 224.9375 173.824219 227.84375 173.480469 230.980469 173.480469 Z M 230.484375 198.625 C 228.058594 198.722656 226.292969 199.300781 225.1875 200.359375 C 224.078125 201.414062 223.519531 202.914062 223.519531 204.863281 C 223.519531 206.644531 223.867188 207.949219 224.574219 208.789062 C 225.269531 209.632812 226.277344 210.042969 227.5625 210.042969 C 229.296875 210.042969 230.734375 209.367188 231.90625 207.980469 C 233.0625 206.613281 233.640625 204.765625 233.640625 202.4375 L 233.640625 198.460938 Z M 230.484375 198.625 " fill-opacity="1" fill-rule="nonzero"/><path fill="#ffffff" d="M 276.367188 173.429688 C 280.460938 173.429688 283.683594 174.78125 286.011719 177.519531 C 288.339844 180.242188 289.492188 184.285156 289.492188 189.632812 L 289.492188 218.789062 L 277.09375 218.789062 L 277.09375 193.28125 C 277.09375 190.261719 276.746094 187.964844 276.039062 186.398438 C 275.328125 184.832031 274.074219 184.054688 272.222656 184.054688 C 269.847656 184.054688 268.210938 185.144531 267.320312 187.289062 C 266.429688 189.453125 265.984375 193.03125 265.984375 198.066406 L 265.984375 218.804688 L 253.582031 218.804688 L 253.582031 174.253906 L 263.144531 174.253906 L 264.679688 179.996094 L 265.324219 179.996094 C 266.082031 178.542969 266.988281 177.324219 268.046875 176.351562 C 269.101562 175.375 270.324219 174.648438 271.730469 174.15625 C 273.132812 173.660156 274.667969 173.429688 276.351562 173.429688 Z M 276.367188 173.429688 " fill-opacity="1" fill-rule="nonzero"/><path fill="#ffffff" d="M 314.457031 209.234375 C 315.429688 209.234375 316.421875 209.121094 317.445312 208.871094 C 318.46875 208.625 319.558594 208.292969 320.679688 207.847656 L 320.679688 217.320312 C 319.328125 218.03125 317.808594 218.574219 316.140625 218.988281 C 314.457031 219.398438 312.625 219.597656 310.625 219.597656 C 307.917969 219.597656 305.65625 219.085938 303.824219 218.0625 C 301.992188 217.039062 300.605469 215.441406 299.695312 213.292969 C 298.773438 211.132812 298.308594 208.292969 298.308594 204.796875 L 298.308594 184.054688 L 293.539062 184.054688 L 293.539062 178.066406 L 299.367188 174.585938 L 302.453125 165.113281 L 310.5625 165.113281 L 310.5625 174.351562 L 320.121094 174.351562 L 320.121094 184.070312 L 310.5625 184.070312 L 310.5625 204.730469 C 310.5625 206.25 310.890625 207.371094 311.566406 208.128906 C 312.246094 208.890625 313.203125 209.25 314.457031 209.25 Z M 314.457031 209.234375 " fill-opacity="1" fill-rule="nonzero"/><g clip-path="url(#f1104a1d3d)"><path fill="#ffffff" d="M 331.957031 156.582031 C 334.070312 156.582031 335.6875 157.09375 336.8125 158.117188 C 337.953125 159.140625 338.511719 160.757812 338.511719 162.96875 C 338.511719 165.179688 337.933594 166.796875 336.777344 167.785156 C 335.605469 168.777344 334.003906 169.289062 331.957031 169.289062 C 329.910156 169.289062 328.210938 168.777344 327.054688 167.785156 C 325.898438 166.78125 325.320312 165.179688 325.320312 162.96875 C 325.320312 160.757812 325.882812 159.058594 327.023438 158.066406 C 328.160156 157.078125 329.8125 156.566406 331.957031 156.566406 Z M 338.035156 174.253906 L 338.035156 218.804688 L 325.71875 218.804688 L 325.71875 174.253906 Z M 338.035156 174.253906 " fill-opacity="1" fill-rule="nonzero"/></g><g clip-path="url(#596d7d1a9b)"><path fill="#ffffff" d="M 345.976562 157.226562 L 358.375 157.226562 L 358.375 218.789062 L 345.976562 218.789062 Z M 345.976562 157.226562 " fill-opacity="1" fill-rule="nonzero"/></g><path fill="#ffffff" d="M 382.613281 173.511719 C 386.277344 173.511719 389.414062 174.304688 392.023438 175.90625 C 394.613281 177.488281 396.597656 179.796875 397.984375 182.785156 C 399.371094 185.773438 400.046875 189.433594 400.046875 193.757812 L 400.046875 200.078125 L 376.785156 200.078125 C 376.785156 203.378906 377.527344 205.851562 379.011719 207.535156 C 380.5 209.21875 382.695312 210.042969 385.617188 210.042969 C 387.78125 210.042969 389.808594 209.78125 391.742188 209.234375 C 393.65625 208.707031 395.671875 207.832031 397.785156 206.644531 L 397.785156 216.445312 C 395.785156 217.535156 393.671875 218.308594 391.460938 218.839844 C 389.25 219.351562 386.738281 219.597656 383.933594 219.597656 C 379.65625 219.597656 376.089844 218.722656 373.234375 216.957031 C 370.359375 215.207031 368.199219 212.617188 366.710938 209.21875 C 365.226562 205.820312 364.484375 201.660156 364.484375 196.746094 C 364.484375 191.828125 365.191406 187.421875 366.628906 183.988281 C 368.066406 180.558594 370.128906 177.949219 372.835938 176.167969 C 375.546875 174.386719 378.796875 173.496094 382.644531 173.496094 Z M 382.925781 182.753906 C 381.191406 182.753906 379.773438 183.429688 378.664062 184.816406 C 377.558594 186.199219 376.949219 188.445312 376.847656 191.578125 L 388.589844 191.578125 C 388.589844 189.683594 388.355469 188.097656 387.910156 186.792969 C 387.464844 185.492188 386.804688 184.5 385.964844 183.808594 C 385.121094 183.097656 384.113281 182.753906 382.925781 182.753906 Z M 382.925781 182.753906 " fill-opacity="1" fill-rule="nonzero"/><path fill="#ffffff" d="M 432.851562 205.421875 C 432.851562 208.441406 432.257812 211.015625 431.070312 213.113281 C 429.878906 215.207031 428.113281 216.824219 425.769531 217.929688 C 423.425781 219.035156 420.484375 219.597656 416.96875 219.597656 C 414.542969 219.597656 412.246094 219.417969 410.085938 219.035156 C 407.921875 218.65625 405.839844 218.011719 403.84375 217.089844 L 403.84375 205.917969 C 405.675781 206.941406 407.691406 207.785156 409.886719 208.476562 C 412.082031 209.167969 414.144531 209.5 416.09375 209.5 C 417.664062 209.5 418.835938 209.234375 419.609375 208.691406 C 420.386719 208.144531 420.800781 207.320312 420.800781 206.183594 C 420.800781 205.539062 420.617188 204.929688 420.273438 204.367188 C 419.925781 203.789062 419.199219 203.179688 418.125 202.503906 C 417.050781 201.828125 415.402344 200.96875 413.1875 199.945312 C 411.140625 198.972656 409.40625 197.851562 408.003906 196.578125 C 406.601562 195.308594 405.542969 193.839844 404.851562 192.15625 C 404.15625 190.472656 403.792969 188.542969 403.792969 186.316406 C 403.792969 182.222656 405.148438 179.039062 407.890625 176.796875 C 410.613281 174.550781 414.328125 173.429688 419.035156 173.429688 C 421.460938 173.429688 423.738281 173.742188 425.886719 174.371094 C 428.015625 174.996094 430.195312 175.90625 432.40625 177.09375 L 429.089844 186.085938 C 427.570312 185.160156 425.984375 184.417969 424.316406 183.824219 C 422.632812 183.230469 421.046875 182.933594 419.527344 182.933594 C 418.289062 182.933594 417.332031 183.164062 416.65625 183.625 C 415.980469 184.089844 415.632812 184.765625 415.632812 185.6875 C 415.632812 186.332031 415.8125 186.910156 416.160156 187.390625 C 416.507812 187.882812 417.234375 188.429688 418.308594 189.054688 C 419.378906 189.683594 420.949219 190.523438 422.996094 191.613281 C 425.042969 192.683594 426.808594 193.839844 428.261719 195.046875 C 429.714844 196.265625 430.855469 197.703125 431.664062 199.382812 C 432.472656 201.066406 432.867188 203.082031 432.867188 205.457031 Z M 432.851562 205.421875 " fill-opacity="1" fill-rule="nonzero"/></svg>