<svg xmlns="http://www.w3.org/2000/svg" width="677" height="745" viewBox="0 0 677 745" fill="none">
<path fill-rule="evenodd" clip-rule="evenodd" d="M3.57248 353.042C3.2615 353.986 3.11469 355.347 4.35072 356.122C3.13679 357.52 2.48167 359.099 2.64111 360.994C2.69754 361.678 2.46737 362.332 2.24659 362.959C2.10912 363.35 1.97529 363.73 1.91654 364.101C1.72227 365.312 1.49575 366.521 1.26912 367.73C0.659699 370.981 0.0494628 374.236 0.0632711 377.573C0.0723676 379.898 0.0603739 382.224 0.0483809 384.55C0.0270744 388.682 0.00577057 392.813 0.102736 396.942C0.149475 398.901 0.105436 400.862 0.0613865 402.825C-0.0403624 407.358 -0.142164 411.893 0.874667 416.4C1.08541 417.333 1.04841 418.306 1.01124 419.282C0.952911 420.815 0.894166 422.358 1.79183 423.779C1.4793 425.964 1.81733 428.11 2.15439 430.251C2.45066 432.132 2.74618 434.009 2.59849 435.902C2.42786 438.096 2.75711 440.244 3.08573 442.389C3.43815 444.688 3.78984 446.983 3.52354 449.325C3.49513 449.585 3.56143 449.879 3.65772 450.127C4.64127 452.649 5.00784 455.296 5.37442 457.943C5.56442 459.315 5.75443 460.687 6.03034 462.042C6.11551 462.46 6.19423 462.877 6.27286 463.294C6.44345 464.198 6.61358 465.099 6.84805 466.005C7.00331 466.608 7.10534 467.223 7.20836 467.844C7.34731 468.682 7.48806 469.531 7.76364 470.373C8.18013 471.648 8.54764 472.935 8.91511 474.221C9.7496 477.143 10.5839 480.064 11.9911 482.844C12.9825 484.803 13.8538 487 14.5421 489.081C15.5792 492.221 16.9884 495.166 18.3906 498.095L18.6275 498.591C21.5621 504.729 24.7272 510.741 28.35 516.55C29.4912 518.381 30.6111 520.232 31.7321 522.085C33.1092 524.361 34.488 526.639 35.9099 528.888C37.7742 531.838 39.6354 534.793 41.3797 537.816C42.3754 539.542 43.328 541.293 44.2806 543.045C45.432 545.162 46.5834 547.279 47.8109 549.351C50.105 553.218 52.4892 557.032 54.8738 560.847C55.5511 561.93 56.2283 563.014 56.9036 564.098C57.4884 565.038 58.0711 565.979 58.6538 566.92C60.69 570.209 62.726 573.498 64.8518 576.729C69.0477 583.106 73.2704 589.443 78.1356 595.376C79.8966 597.524 81.6195 599.716 83.3433 601.908C84.6823 603.61 86.0217 605.314 87.3799 606.998C87.5882 607.257 87.7961 607.515 88.0041 607.774C89.9792 610.231 91.9598 612.695 94.3178 614.815C94.6536 615.117 94.7901 615.508 94.9295 615.906C95.0562 616.269 95.1853 616.638 95.4686 616.955C95.7129 617.228 96.0159 617.308 96.3221 617.389C96.7321 617.497 97.1479 617.608 97.4371 618.183C98.8468 620.989 100.954 623.272 103.063 625.556C104.147 626.731 105.232 627.905 106.222 629.151C107.681 630.99 109.339 632.661 111.003 634.338C112.824 636.174 114.651 638.015 116.229 640.088C117.36 641.575 118.743 642.868 120.127 644.161C120.749 644.743 121.372 645.324 121.972 645.924C122.559 646.511 123.197 647.071 123.835 647.632C125.291 648.91 126.747 650.189 127.607 651.788C128.181 652.855 129.097 653.556 129.997 654.246C131.103 655.093 132.185 655.921 132.575 657.386C133.659 657.649 134.196 658.557 134.709 659.422C135.187 660.229 135.644 661 136.502 661.179C137.973 661.485 138.497 662.487 139.018 663.485C139.365 664.149 139.711 664.811 140.334 665.266C141.254 665.939 142.089 666.718 142.929 667.502C143.921 668.428 144.919 669.36 146.073 670.131C147.076 670.801 147.913 671.713 148.753 672.629C149.285 673.208 149.817 673.789 150.394 674.31C150.968 674.829 151.595 675.293 152.222 675.757C153.023 676.35 153.824 676.942 154.511 677.647C158.67 681.905 163.528 685.243 168.387 688.582C168.977 688.987 169.566 689.393 170.155 689.799C176.357 694.086 182.76 698.047 189.278 701.832C190.487 702.534 191.747 703.157 193.003 703.778C194.622 704.578 196.235 705.376 197.723 706.335C201.008 708.451 204.407 710.367 207.803 712.281C209.546 713.263 211.288 714.245 213.014 715.253C217.811 718.054 222.941 720.303 228.055 722.546C229.027 722.973 229.999 723.399 230.969 723.829C232.651 724.575 234.391 725.276 236.134 725.903C239.435 727.089 242.756 728.222 246.078 729.355C248.163 730.066 250.248 730.777 252.328 731.501C258.766 733.746 265.274 735.708 271.944 737.168C272.803 737.356 273.648 737.605 274.494 737.854C276.377 738.408 278.26 738.962 280.282 738.844C280.918 739.708 281.796 739.656 282.634 739.607C283.197 739.574 283.742 739.541 284.183 739.788C285.63 740.598 287.044 740.577 288.516 740.555L288.609 740.554C290.459 740.523 292.271 741.009 294.003 741.473C294.352 741.567 294.698 741.659 295.04 741.747C295.76 741.931 296.506 741.931 297.228 741.932C298.203 741.932 299.133 741.932 299.89 742.386C301.187 743.165 302.445 743.147 303.716 743.128C304.063 743.123 304.41 743.118 304.76 743.13C305.593 743.155 306.439 743.115 307.284 743.075C308.911 742.998 310.532 742.921 312.035 743.313C312.29 743.379 312.545 743.452 312.8 743.525C313.885 743.835 314.966 744.144 316.012 743.936C316.549 743.83 317.06 744.132 317.564 744.431C318.379 744.913 319.173 745.384 320.018 744.08C320.861 745.137 321.956 745.022 323.021 744.91C323.353 744.876 323.681 744.841 323.998 744.842C336.482 744.89 348.967 744.891 361.452 744.841C361.742 744.839 362.032 744.855 362.323 744.871C363.37 744.929 364.424 744.986 365.521 744.238C366.078 743.857 366.706 744.148 367.393 744.466C368.003 744.749 368.661 745.054 369.357 744.929C369.701 744.867 370.085 744.767 370.47 744.667C371.35 744.436 372.238 744.204 372.677 744.432C373.501 744.857 374.291 744.848 375.136 744.838C375.774 744.83 376.443 744.822 377.182 745C377.611 744.478 378.076 743.91 378.535 743.351C378.833 742.988 379.128 742.628 379.408 742.287C379.877 742.287 380.329 742.266 380.768 742.246C381.735 742.203 382.632 742.162 383.479 742.351C384.209 742.515 384.878 742.948 385.541 743.379C385.833 743.568 386.123 743.756 386.417 743.92C386.58 743.657 386.621 743.384 386.659 743.137C386.712 742.788 386.758 742.49 387.123 742.34C387.227 742.427 387.336 742.541 387.445 742.655C387.678 742.899 387.909 743.141 388.086 743.106C389.447 742.827 390.786 743.037 392.133 743.248C393.688 743.491 395.254 743.736 396.878 743.235C398.044 742.876 399.255 742.895 400.493 742.915C401.88 742.937 403.301 742.959 404.732 742.452C405.915 742.034 407.209 742.044 408.535 742.054C410.007 742.065 411.518 742.076 412.956 741.501C414.071 741.054 415.619 741.114 416.77 741.515C417.265 741.687 417.669 741.403 418.053 741.132C418.557 740.777 419.026 740.446 419.62 741.215C420.644 740.367 421.901 740.427 423.044 740.61C423.767 740.727 424.392 740.441 424.986 740.169C425.519 739.926 426.027 739.693 426.559 739.774C428.297 740.038 429.918 739.597 431.512 739.164C432.177 738.983 432.836 738.804 433.499 738.677C434.138 738.554 434.8 738.487 435.466 738.42C437.082 738.256 438.724 738.09 440.137 737.122C442.551 737.191 444.799 736.46 447.048 735.73C449.19 735.034 451.332 734.338 453.618 734.333C457.441 732.543 461.463 731.35 465.492 730.154C468.724 729.196 471.961 728.236 475.104 726.965C482.613 723.926 490.023 720.714 497.379 717.34C501.981 715.229 506.48 712.949 510.891 710.458L511.632 710.04C518.268 706.295 524.895 702.557 531.313 698.427C540.02 692.824 548.272 686.598 556.512 680.371C559.759 677.917 562.878 675.227 565.978 672.553L566.768 671.872C570.417 668.727 573.911 665.377 577.389 662.042C577.681 661.763 577.972 661.484 578.263 661.205C588.148 651.732 597.775 641.989 607.024 631.874C609.531 629.132 611.646 626.151 613.762 623.17C614.109 622.68 614.457 622.19 614.806 621.701C618.566 616.436 622.131 611.008 625.446 605.448C625.784 604.88 626.18 604.329 626.578 603.776C627.826 602.039 629.091 600.281 628.644 597.899C629.973 597.567 630.966 597.163 631.17 596.183C631.259 595.682 631.046 595.383 630.828 595.077C630.56 594.7 630.284 594.312 630.546 593.523C630.806 593.099 631.107 592.64 631.428 592.153C632.204 590.972 633.092 589.622 633.765 588.171C635.071 585.356 636.589 582.654 638.107 579.95C639.977 576.62 641.847 573.289 643.323 569.747C644.029 568.054 644.925 566.441 645.822 564.828C646.61 563.409 647.398 561.99 648.057 560.515C648.493 559.543 649.021 558.607 649.549 557.669C650.794 555.46 652.042 553.247 652.084 550.551C652.086 550.431 652.227 550.321 652.376 550.204C652.482 550.121 652.593 550.034 652.661 549.938C653.521 548.729 654.078 547.43 654.574 545.989C654.785 545.378 654.972 544.754 655.159 544.128C655.773 542.082 656.393 540.015 657.867 538.301C658.25 537.855 658.396 537.177 658.535 536.535C658.634 536.08 658.728 535.644 658.899 535.32C660.031 533.188 660.707 530.899 661.376 528.635C661.607 527.853 661.837 527.073 662.085 526.305C662.326 525.556 662.576 524.808 662.826 524.058C664.239 519.827 665.668 515.551 665.629 510.986C665.624 510.477 665.873 510.164 666.117 509.858C666.28 509.652 666.442 509.449 666.522 509.191C666.885 508.037 667.237 506.904 667.477 505.692C668.123 502.406 668.855 499.124 669.681 495.869L669.742 495.628C670.258 493.601 670.792 491.502 670.743 489.453C670.714 488.231 671.003 487.056 671.29 485.887C671.668 484.347 672.044 482.816 671.689 481.198C672.625 480.295 672.555 479.174 672.485 478.074C672.431 477.213 672.377 476.364 672.81 475.645C673.535 474.439 673.456 473.218 673.378 472.005C673.331 471.285 673.285 470.568 673.406 469.858C673.513 469.238 673.652 468.622 673.79 468.006C674.167 466.331 674.543 464.656 674.278 462.901C675.55 462.248 675.093 461.497 674.661 460.789C674.352 460.282 674.057 459.796 674.418 459.384C675.202 458.491 675.121 457.462 675.043 456.471C674.978 455.645 674.915 454.846 675.354 454.172C676.097 453.031 676.016 451.864 675.935 450.714C675.881 449.933 675.827 449.16 676.032 448.408C676.161 447.933 675.896 447.583 675.655 447.266C675.412 446.944 675.193 446.656 675.432 446.304C676.116 445.292 676.039 444.185 675.964 443.087C675.895 442.094 675.828 441.109 676.322 440.208C677.167 438.671 677.035 437.064 676.903 435.467C676.85 434.821 676.797 434.176 676.808 433.539C676.936 426.797 676.932 420.051 676.819 413.308C676.807 412.587 676.829 411.865 676.852 411.143C676.918 408.963 676.985 406.779 676.109 404.58C675.467 402.97 675.732 400.847 676.063 399.042C676.257 397.99 675.924 397.097 675.591 396.205C675.303 395.432 675.015 394.66 675.069 393.786C675.086 393.508 675.106 393.228 675.126 392.948C675.285 390.739 675.447 388.478 674.272 386.398C674.423 384.314 673.922 382.325 673.42 380.337C672.947 378.46 672.473 376.584 672.549 374.627C671.667 373.739 671.641 372.65 671.615 371.552C671.598 370.866 671.582 370.176 671.356 369.529C670.519 367.132 669.776 364.703 669.033 362.274C668.491 360.502 667.949 358.731 667.37 356.971C665.466 351.167 663.329 345.458 660.674 339.943C660.434 339.444 660.194 338.946 659.955 338.447C657.314 332.946 654.674 327.45 651.53 322.206C650.837 321.05 650.194 319.855 649.551 318.66C648.279 316.298 647.009 313.938 645.357 311.882C643.475 309.542 641.781 307.06 640.087 304.578C637.281 300.468 634.477 296.359 630.824 292.903C628.919 289.633 626.361 286.904 623.802 284.172C621.992 282.241 620.181 280.308 618.599 278.182C617.841 277.163 616.886 276.289 615.932 275.415C614.967 274.532 614.001 273.648 613.239 272.614C612.48 271.585 611.618 270.664 610.757 269.744C610.022 268.958 609.287 268.172 608.618 267.321C607.112 265.406 605.486 263.593 603.859 261.779C602.044 259.754 600.226 257.727 598.572 255.554C595.449 251.449 592.535 247.222 590.115 242.682C589.88 242.241 589.643 241.801 589.406 241.359C587.689 238.166 585.957 234.943 584.833 231.538C584.18 229.557 583.493 227.583 582.805 225.609C582.136 223.685 581.466 221.762 580.828 219.833C579.672 216.335 578.877 212.76 578.082 209.187C577.512 206.624 576.942 204.062 576.24 201.529C575.598 199.22 575.296 196.828 574.992 194.425C574.664 191.829 574.335 189.222 573.575 186.694C573.277 185.702 573.319 184.68 573.362 183.639C573.415 182.338 573.47 181.005 572.865 179.66C572.382 178.587 572.359 177.375 572.336 176.123C572.315 175.005 572.293 173.855 571.944 172.742C571.287 170.652 571.58 168.165 571.868 165.906C572.03 164.662 571.72 163.522 571.411 162.387C571.142 161.399 570.874 160.414 570.92 159.366C570.942 158.863 570.971 158.356 571.001 157.848C571.125 155.753 571.249 153.633 570.825 151.645C570.616 150.66 570.611 149.673 570.607 148.688C570.601 147.423 570.596 146.162 570.156 144.916C569.877 144.124 569.949 143.209 570.02 142.295C570.052 141.882 570.085 141.469 570.085 141.068V136.762C570.085 136.366 570.092 135.97 570.099 135.574C570.116 134.677 570.132 133.78 570.064 132.89C570.035 132.515 570.067 132.126 570.099 131.736C570.181 130.727 570.265 129.711 569.284 128.915C570.168 128.262 569.841 127.656 569.503 127.028C569.285 126.622 569.061 126.208 569.155 125.765C569.359 124.794 569.311 123.768 569.264 122.743C569.244 122.319 569.224 121.895 569.223 121.475C569.221 121.17 569.255 120.83 569.29 120.489C569.369 119.713 569.448 118.933 569.098 118.558C568.002 117.388 568.234 116.102 568.437 114.98L568.441 114.957C568.583 114.178 568.272 113.59 567.965 113.009C567.703 112.513 567.444 112.023 567.472 111.425C567.549 109.783 567.365 108.219 566.758 106.574C566.437 105.702 566.344 104.748 566.248 103.77C566.17 102.969 566.091 102.152 565.882 101.351C564.77 97.0738 563.309 92.9213 561.848 88.7699C561.543 87.9016 561.237 87.0333 560.935 86.1638C558.599 79.4429 554.982 73.3581 551.135 67.4122C550.286 66.1003 549.354 64.8305 548.426 63.5658C547.328 62.0701 546.235 60.5815 545.291 59.0386C543.305 55.7929 540.809 53.039 538.316 50.288C537.123 48.9719 535.931 47.6564 534.795 46.2881C533.925 45.2398 532.867 44.3343 531.816 43.4343C530.755 42.5265 529.701 41.6243 528.853 40.5868C525.89 36.9553 522.321 34.0688 518.749 31.1799C517.463 30.1399 516.176 29.0996 514.918 28.0241C514.535 27.6963 514.104 27.6825 513.668 27.6685C513.175 27.6527 512.674 27.6367 512.229 27.1639C508.634 23.3532 504.089 20.8723 499.572 18.4068C498.97 18.0782 498.368 17.7499 497.769 17.4187C494.068 15.3699 490.191 13.6226 486.225 12.0458C485.944 11.9339 485.666 11.82 485.391 11.7073C483.642 10.99 482.003 10.3181 480.256 10.4831C479.986 10.2636 479.742 10.0366 479.512 9.82152C479.031 9.373 478.605 8.97593 478.102 8.80524C477.749 8.68447 477.359 8.69773 476.966 8.71107C476.245 8.73554 475.517 8.76026 475.006 7.95605C474.002 8.98671 473.544 8.37502 473.089 7.76563C472.833 7.42402 472.578 7.08313 472.228 7.03267C470.4 6.77164 468.649 6.22384 466.894 5.67466C465.189 5.14124 463.48 4.60652 461.692 4.33199C461.412 4.28864 461.13 4.2463 460.848 4.2038C459.03 3.93059 457.17 3.65102 455.368 3.0582C453.196 2.34475 450.794 1.80335 448.544 1.95962C446.704 2.08719 444.917 1.76782 443.138 1.44956C441.196 1.10234 439.261 0.756438 437.271 0.993619C437.156 1.00782 436.959 0.936796 436.913 0.846826C436.642 0.310331 436.225 0.439 435.777 0.577041C435.288 0.72776 434.763 0.889651 434.353 0.209142C434.038 -0.31016 432.633 0.250181 431.767 0.949423C431.304 1.32468 430.791 1.07579 430.276 0.825871C429.814 0.60169 429.35 0.376681 428.919 0.600591C427.923 1.11831 427.048 1.36455 426.277 0.52167C425.546 -0.275356 424.995 0.213498 424.499 0.65405C424.11 0.998718 423.755 1.31382 423.374 0.960472C422.122 -0.199718 420.736 -0.0475167 419.383 0.101138C418.948 0.148861 418.517 0.196219 418.095 0.199671C417.273 0.206767 416.451 0.186472 415.629 0.166172C412.976 0.100671 410.32 0.0351121 407.652 0.889443C406.107 1.38436 404.329 1.23011 402.591 1.07939C402.134 1.03976 401.68 1.00038 401.234 0.9731C400.009 0.897387 398.836 1.13851 397.673 1.37747C396.824 1.55201 395.98 1.72539 395.126 1.77336C394.548 1.80616 393.969 1.90939 393.387 2.01304C392.065 2.24864 390.73 2.48643 389.367 1.90437C388.846 1.68302 388.204 1.9681 387.566 2.25136C387.517 2.27311 387.468 2.29484 387.419 2.31634C385.29 3.2555 383.055 3.79848 380.625 3.62328C378.127 3.44373 375.757 4.08803 373.375 4.73516C371.528 5.23723 369.674 5.741 367.75 5.86306C367.405 5.8849 367.043 5.88249 366.675 5.88003C365.659 5.87326 364.595 5.86616 363.703 6.36658C362.066 7.28642 360.265 7.64676 358.462 8.00761C356.725 8.35513 354.985 8.70313 353.388 9.55184C352.87 9.82691 352.21 9.98464 351.574 10.1366C350.98 10.2784 350.407 10.4152 349.991 10.6378C349.08 11.1241 348.145 11.2308 347.22 11.3365C346.556 11.4122 345.897 11.4874 345.255 11.7017C344.717 11.8804 344.314 12.2711 343.925 12.6494C343.375 13.1834 342.851 13.6928 342.003 13.5468C340.927 13.3603 340.034 13.7263 339.135 14.0944C338.909 14.1872 338.682 14.2802 338.452 14.3645C332.424 16.5753 326.587 19.2429 320.756 21.9073L320.527 22.0119C319.106 22.66 317.763 23.4764 316.42 24.293C315.13 25.0775 313.839 25.8621 312.479 26.4978C307.543 28.8038 302.998 31.7516 298.456 34.6979C296.817 35.7609 295.178 36.8237 293.522 37.8562C292.176 38.6959 290.92 39.7184 289.67 40.7369C288.341 41.8202 287.016 42.899 285.594 43.7484C281.376 46.2671 277.747 49.4705 274.132 52.6622C273.018 53.6448 271.906 54.6264 270.779 55.5866C269.957 56.287 269.066 56.9317 268.17 57.5799C265.812 59.2864 263.42 61.0171 262.161 63.8528C261.222 63.7226 261.048 64.3333 260.875 64.938C260.74 65.4107 260.607 65.8797 260.109 65.9884C258.791 66.2789 257.855 67.1596 257.153 68.1524C256.674 68.8289 256.125 69.4542 255.575 70.0793C254.515 71.2849 253.456 72.4899 252.911 74.0605C251.081 74.4591 250.195 75.8119 249.314 77.1575C248.764 77.9968 248.216 78.8332 247.443 79.4334C247.037 79.748 246.849 80.1966 246.667 80.6312C246.434 81.187 246.21 81.72 245.553 81.921C244.576 82.2192 244.034 82.9305 243.513 83.614C243.369 83.8026 243.227 83.9889 243.078 84.164C243.049 84.3891 243.224 84.5051 243.387 84.6128C243.609 84.7604 243.808 84.8923 243.427 85.2673C242.924 85.3218 242.389 85.3803 241.738 85.451L241.234 85.5056C241.397 86.4227 240.855 87.013 240.24 87.6113C239.585 88.2459 238.95 88.9027 238.315 89.5594C237.152 90.763 235.988 91.9659 234.71 93.03C234.156 93.4911 233.844 94.0941 233.533 94.6949C233.158 95.4205 232.784 96.1429 231.988 96.6083C230.078 97.7227 228.441 99.2569 226.948 100.897C223.219 104.991 219.145 108.775 214.718 112.02C213.751 112.729 212.862 113.52 211.97 114.313C210.719 115.426 209.464 116.542 207.987 117.437C205.948 118.673 203.965 120.003 201.98 121.335C199.935 122.708 197.886 124.082 195.769 125.358C193.715 126.597 191.6 127.875 189.56 129.184C188.264 130.016 186.864 130.756 185.47 131.493C184.738 131.881 184.007 132.267 183.293 132.666C182.594 133.056 181.816 133.316 181.037 133.575C179.485 134.093 177.928 134.612 176.981 136.172C174.537 136.393 172.472 137.618 170.452 138.817C169.725 139.248 169.005 139.675 168.275 140.051C167.536 140.432 166.788 140.806 166.037 141.181C163.806 142.295 161.552 143.42 159.457 144.787C157.799 145.869 156.031 146.741 154.261 147.615C153.039 148.218 151.816 148.822 150.628 149.495C149.613 150.07 148.577 150.627 147.541 151.185C145.51 152.277 143.477 153.371 141.598 154.601C139.207 156.168 136.738 157.599 134.27 159.03C131.733 160.501 129.196 161.971 126.744 163.589C124.122 165.318 121.442 166.995 118.764 168.672C117.227 169.634 115.691 170.596 114.165 171.568C107.06 176.093 100.129 180.887 93.3817 185.972C92.3729 186.733 91.3668 187.508 90.3585 188.285C88.4554 189.751 86.5443 191.223 84.5921 192.619C82.6375 194.017 80.8863 195.707 79.1286 197.403C78.0385 198.454 76.946 199.509 75.8009 200.497C72.6548 203.213 69.8942 206.356 67.1331 209.501C66.6219 210.083 66.1106 210.665 65.5969 211.245C61.5415 215.824 57.6519 220.505 54.149 225.493C49.6705 231.868 45.6593 238.548 41.9559 245.405C40.3757 248.33 38.854 251.289 37.3922 254.276C36.8843 255.314 36.3872 256.358 35.8901 257.402C34.9023 259.475 33.9143 261.549 32.8411 263.588C31.6521 265.85 30.599 268.183 29.5457 270.516C28.6328 272.538 27.7197 274.56 26.7178 276.538C25.8487 278.252 25.2112 280.032 24.5726 281.815C24.4526 282.15 24.3326 282.485 24.211 282.82C24.1483 282.992 24.1187 283.169 24.0889 283.348C24.0332 283.682 23.9767 284.021 23.7011 284.341C22.4497 285.802 21.862 287.589 21.2779 289.366C21.1127 289.868 20.9477 290.37 20.7681 290.863C19.4941 294.361 18.2628 297.891 17.352 301.494C17.049 302.691 16.5668 303.817 16.088 304.935C15.5715 306.142 15.059 307.339 14.7805 308.603C14.5062 309.849 14.1208 311.065 13.7364 312.277C13.2293 313.877 12.7241 315.47 12.4789 317.119C12.2848 318.422 11.873 319.658 11.4627 320.889C11.0254 322.202 10.5898 323.509 10.422 324.886C10.0116 328.256 9.23331 331.618 8.30352 334.794C7.52036 337.468 6.88932 340.177 6.25852 342.886C5.46398 346.298 4.6698 349.708 3.57248 353.042ZM230.236 108.901C228.582 107.659 227.549 108.364 226.5 109.141V112.082C225.103 112.152 224.626 113.124 224.112 114.17C223.669 115.072 223.199 116.028 222.091 116.511C220.728 117.105 219.625 118.296 218.529 119.48L218.529 119.48C218.044 120.004 217.561 120.526 217.056 120.995C217.249 121.441 217.645 121.522 218.046 121.603C218.507 121.696 218.972 121.79 219.137 122.444C219.464 122.154 219.769 121.832 220.072 121.511C221.105 120.419 222.115 119.35 223.904 119.701V117.664C225.282 117.304 226.201 116.331 227.121 115.357C227.333 115.132 227.545 114.908 227.762 114.691C228.13 114.324 228.609 114.069 229.087 113.814C230.042 113.305 230.997 112.796 231.066 111.401C232.273 111.516 232.74 110.743 233.222 109.946C233.562 109.383 233.91 108.808 234.53 108.522C235.498 108.079 236.275 107.209 237.047 106.343C237.348 106.007 237.648 105.671 237.958 105.361C238.542 104.778 239.055 104.111 239.559 103.453L239.56 103.453C240.07 102.788 240.572 102.134 241.131 101.59C241.577 101.157 241.967 100.671 242.357 100.188C242.949 99.4517 243.539 98.7195 244.312 98.1804C244.656 97.9411 245.027 97.7253 245.397 97.5092C246.474 96.8817 247.554 96.2523 248.005 95.0393C248.657 93.2904 249.972 92.4996 251.566 91.7957C250.958 89.2703 252.77 88.9411 254.58 88.6122C254.745 88.5821 254.91 88.5521 255.074 88.5204C254.627 88.0753 254.423 87.8717 254.212 87.6602C254.241 87.0867 254.605 87.0802 254.977 87.0735C255.277 87.0681 255.582 87.0626 255.724 86.7605C255.825 86.5444 255.926 86.325 256.026 86.1044C256.788 84.4388 257.581 82.704 259.108 81.7632C260.349 81.001 261.191 79.9345 262.029 78.8724L262.029 78.872C262.505 78.2691 262.98 77.6677 263.525 77.1242C269.455 71.2225 275.494 65.4454 281.733 59.8736C281.881 59.7417 282.019 59.5748 282.155 59.4091C282.412 59.0988 282.665 58.7925 282.974 58.7277C284.925 58.3184 286.208 57.0433 287.493 55.7669C288.066 55.1974 288.639 54.6277 289.272 54.1345C290.176 53.4298 291.022 52.6391 291.864 51.853C293.084 50.7127 294.295 49.5818 295.656 48.7362C299.121 46.588 302.504 44.4224 305.224 41.5497C305.508 41.6532 305.662 41.8654 305.783 42.0324C305.903 42.199 305.991 42.3207 306.144 42.2442C306.665 41.7624 307.15 41.2204 307.622 40.6923L307.623 40.6921C308.645 39.5489 309.608 38.4714 310.755 38.2145C312.142 37.9044 312.931 37.149 313.801 36.3157C314.348 35.7914 314.928 35.2363 315.709 34.7419C313.39 34.9846 312.387 35.0896 311.555 35.5231C310.92 35.8538 310.385 36.3757 309.442 37.2958C308.779 36.797 308.105 37.0295 307.404 37.2714C306.669 37.5247 305.905 37.7882 305.094 37.2327C305.027 37.5159 304.981 37.8172 304.935 38.1188C304.725 39.48 304.515 40.8488 302.398 40.5995C301.89 40.5395 301.509 40.7968 301.347 41.1535C300.515 42.9903 298.918 43.9295 297.33 44.8634C296.623 45.2794 295.917 45.6944 295.282 46.1871C295.208 46.2446 295.133 46.3028 295.058 46.3615C294.995 46.4109 294.932 46.4607 294.869 46.5106C293.357 47.7007 291.716 48.9924 289.665 48.4474C288.759 50.5972 287.463 51.9168 285.724 52.8149C285.442 52.5525 285.217 52.3433 285.002 52.1432L284.973 52.1166L284.587 51.7573C284.448 52.0644 284.309 52.3705 284.17 52.6767L283.836 53.4153C283.589 53.9595 283.341 54.506 283.09 55.0594C281.655 55.1065 280.424 55.7963 279.18 56.4929L279.037 56.5731V58.2794C277.778 58.4654 277.007 59.3405 276.259 60.1909C276.188 60.2713 276.118 60.3514 276.047 60.4308C275.769 60.7425 275.41 60.9347 275.047 61.1292C274.423 61.4627 273.787 61.8033 273.526 62.7653C273.324 63.5136 272.584 64.1168 271.845 64.7192C271.516 64.9872 271.188 65.255 270.907 65.5354C270.562 65.6101 270.2 65.5993 269.825 65.588C269.146 65.5676 268.427 65.5461 267.699 66.0279L268.836 66.4729L270.072 66.956C268.508 67.0085 268.005 67.8666 267.517 68.6992C267.287 69.0928 267.06 69.4807 266.725 69.7751C265.515 70.8383 264.39 71.9959 263.264 73.153L263.264 73.1532C262.788 73.6433 262.311 74.1333 261.828 74.6161C262.209 75.5426 261.657 75.6975 261.07 75.8622C260.555 76.0068 260.013 76.1589 260.051 76.8464C260.101 77.7442 259.518 77.6789 258.907 77.6105C258.356 77.5489 257.783 77.4847 257.632 78.1234C257.717 78.2307 257.8 78.3353 257.862 78.4142L257.892 78.4511C257.938 78.5097 257.968 78.5477 257.971 78.5519C257.975 78.5562 257.949 78.5245 257.883 78.4422L256.18 80.1492L256.166 80.163C254.759 81.573 253.405 82.9296 252.052 84.2871C251.851 84.5571 251.718 84.3612 251.568 84.1419C251.389 83.8778 251.186 83.5797 250.813 84.0204C250.23 84.6095 250.665 85.0228 251.096 85.4332C251.56 85.8739 252.02 86.3112 251.212 86.9594C250.957 87.0372 250.812 86.8626 250.666 86.6865C250.483 86.4659 250.297 86.2427 249.891 86.5095C249.716 86.7912 249.741 87.1321 249.766 87.4795C249.802 87.9694 249.839 88.4724 249.318 88.8409C248.876 88.2805 248.423 87.7091 248.025 87.8575C247.164 88.2281 247.179 88.6488 247.193 89.0328C247.195 89.0692 247.196 89.1052 247.196 89.1408C247.226 90.9702 246.868 92.5738 244.885 93.2778C244.869 94.3759 244.126 94.7386 243.377 95.1051C242.922 95.327 242.466 95.5503 242.165 95.939C241.781 96.4364 241.296 96.8648 240.814 97.2912L240.814 97.2913C240.204 97.8311 239.598 98.3675 239.202 99.0359C237.821 101.37 235.913 103.192 233.969 105.05C232.694 106.267 231.404 107.5 230.236 108.901ZM80.6134 259.006C79.2856 260.706 77.916 262.458 75.7267 263.666C76.1324 261.487 77.1017 259.871 78.0851 258.408C82.5478 251.779 87.0926 245.2 91.7573 238.711C92.5223 237.646 93.407 236.67 94.2962 235.689C94.996 234.918 95.6985 234.143 96.3478 233.319C102.287 225.783 108.637 218.578 115.757 212.121C119.395 208.819 123.389 205.906 127.623 203.408C127.901 203.243 128.134 202.973 128.373 202.695C128.962 202.012 129.596 201.278 131.069 201.916C130.72 202.265 130.387 202.612 130.061 202.953L130.061 202.953L130.061 202.953C129.334 203.711 128.637 204.438 127.868 205.074C127.456 205.415 127.182 205.887 126.908 206.358C126.45 207.147 125.993 207.932 124.9 208.085C123.711 210.072 122.089 211.688 120.473 213.299C119.011 214.756 117.554 216.208 116.424 217.928C116.056 218.49 115.639 218.666 115.238 218.835C115.011 218.93 114.789 219.024 114.584 219.184C113.241 220.232 112.274 221.577 111.306 222.922C110.725 223.731 110.143 224.54 109.48 225.283C108.898 225.936 108.244 226.52 107.588 227.106L107.588 227.106L107.588 227.106C106.26 228.292 104.929 229.481 104.193 231.243C103.906 231.931 103.266 232.475 102.629 233.016C102.36 233.245 102.091 233.473 101.849 233.712C98.9206 236.611 96.4358 239.87 93.9418 243.14L93.5916 243.599C92.7039 244.761 91.7006 245.828 90.6927 246.901C89.6914 247.966 88.6855 249.036 87.784 250.208C87.4018 250.705 87.0225 251.21 86.6424 251.716C85.3585 253.425 84.0651 255.147 82.6157 256.629C81.8981 257.363 81.2607 258.178 80.6134 259.006ZM428.263 220.643C427.901 220.441 427.537 220.237 427.031 220.259C427.552 216.434 429.464 213.545 431.392 210.631C432.5 208.956 433.613 207.273 434.471 205.4C437.431 207.726 437.571 210.477 437.466 213.244C437.246 213.48 436.954 213.563 436.67 213.643C436.189 213.779 435.731 213.908 435.691 214.768C435.615 216.374 434.995 217.934 433.398 218.832C432.964 219.075 432.573 219.361 432.178 219.65C431.531 220.124 430.876 220.604 430.016 220.903C429.22 221.179 428.744 220.912 428.263 220.643ZM646.858 366.449C647.267 368.632 647.576 370.678 647.538 373.491C645.978 371.132 645.425 368.793 644.904 366.591C644.726 365.84 644.552 365.105 644.343 364.391C644.123 363.639 643.895 362.878 643.665 362.112L643.664 362.107L643.664 362.107L643.664 362.106L643.663 362.105L643.662 362.102C643.202 360.565 642.736 359.009 642.318 357.47C641.145 353.137 639.824 348.83 638.171 344.62C637.647 343.285 637.165 341.931 636.682 340.577L636.682 340.576C635.743 337.943 634.804 335.309 633.563 332.81C633.223 332.125 633.136 331.552 633.053 331.009L633.052 331.008L633.052 331.007C633.014 330.759 632.977 330.517 632.917 330.274C633.683 329.724 633.937 330.368 634.003 330.564C634.595 332.344 635.53 333.973 636.509 335.522C637.363 336.875 637.918 338.392 638.444 339.828L638.45 339.843L638.458 339.866L638.516 340.024L638.58 340.2C638.631 340.338 638.682 340.475 638.733 340.611C639.276 342.064 639.857 343.503 640.439 344.944L640.44 344.946L640.441 344.949L640.442 344.952L640.444 344.955L640.445 344.957C641.893 348.543 643.344 352.134 644.207 355.948C644.546 357.449 644.957 358.929 645.369 360.413C645.922 362.403 646.475 364.397 646.858 366.449ZM525.309 587.906C518.736 591.112 504.368 602.381 502.409 608.302C502.873 608.011 503.353 607.782 503.819 607.56C505.104 606.946 506.281 606.385 506.726 604.705C506.85 604.235 507.303 603.869 507.769 603.493C508.133 603.2 508.504 602.9 508.734 602.539C509.121 601.933 509.679 601.93 510.245 601.926C510.785 601.923 511.332 601.92 511.746 601.393C512.129 600.905 512.668 600.512 513.2 600.125C513.887 599.623 514.562 599.131 514.87 598.454C515.3 597.511 516.053 597.125 516.793 596.744C517.346 596.461 517.891 596.181 518.289 595.676C518.327 595.629 518.365 595.581 518.403 595.532C518.452 595.469 518.501 595.406 518.551 595.342L518.572 595.315L518.596 595.285L518.604 595.275C519.397 594.255 520.261 593.144 521.336 592.737C521.965 592.499 522.348 591.976 522.715 591.473C523.183 590.833 523.625 590.228 524.519 590.294C525.356 590.355 525.671 589.766 525.979 589.19C526.293 588.604 526.599 588.032 527.442 588.176C528.127 587.379 528.998 586.81 529.87 586.241C530.858 585.596 531.848 584.95 532.573 583.968C533.057 583.309 533.302 582.815 532.603 582.107C531.199 582.314 530.118 583.16 529.096 583.96C528.724 584.251 528.36 584.536 527.991 584.782C527.594 584.725 527.297 584.485 527.018 584.26C526.59 583.914 526.205 583.604 525.564 584.05C525.545 584.07 525.518 584.093 525.488 584.117C525.459 584.142 525.428 584.168 525.4 584.195C525.357 584.238 525.323 584.284 525.322 584.331C525.302 585.472 525.309 586.613 525.309 587.906ZM555.317 609.172C557.125 607.492 558.941 605.804 561.423 604.907L560.867 605.543C560.604 605.845 560.355 606.13 560.141 606.374L559.953 606.589L559.844 606.713C559.679 607.419 559.962 607.715 560.214 607.978C560.355 608.125 560.486 608.262 560.521 608.455C557.077 609.393 556.9 609.609 558.007 611.951C557.06 612.164 556.405 612.812 555.765 613.445C555.284 613.921 554.81 614.389 554.228 614.657C552.583 615.413 551.598 616.453 550.568 618.194C549.467 618.112 548.066 618.696 546.925 619.582C546.471 619.934 546.059 620.346 545.648 620.757C544.602 621.805 543.56 622.848 541.842 622.874C540.839 624.672 539.122 625.41 537.401 626.149C536.092 626.711 534.782 627.274 533.783 628.304C533.16 628.948 532.262 628.768 531.578 628.422C532.56 627.567 533.539 626.702 534.519 625.837L534.522 625.834C536.793 623.828 539.071 621.816 541.421 619.889C544.687 617.214 547.957 614.538 551.544 612.267C552.925 611.394 554.119 610.285 555.317 609.172ZM451.259 479.458C456.364 472.884 460.371 465.777 464.167 458.563C466.844 453.48 469.438 448.351 472.031 443.223L472.032 443.221L472.033 443.219L472.034 443.217L472.035 443.215L472.037 443.212L472.038 443.21L472.039 443.208L472.04 443.206L472.041 443.204L472.042 443.202L472.043 443.2C473.877 439.574 475.71 435.949 477.573 432.339C478.078 431.361 478.116 430.636 477.434 429.651C470.222 441.741 463.732 454.129 457.252 466.5L457.251 466.503L457.249 466.507L457.247 466.51L457.245 466.513L457.244 466.517L457.242 466.52L457.24 466.523L457.238 466.527L457.237 466.53L457.235 466.533C455.259 470.305 453.284 474.076 451.289 477.836C451.134 478.127 451.177 478.523 451.22 478.919C451.239 479.102 451.259 479.286 451.259 479.458ZM136.174 256.178C136.622 255.75 137.077 255.315 137.532 254.86C137.593 255.084 137.662 255.28 137.719 255.442L137.719 255.442C137.814 255.712 137.877 255.888 137.817 255.953C129.434 265.123 122.066 275.077 114.686 285.047L114.686 285.047C109.828 291.608 104.966 298.177 99.8065 304.533C100.057 304.022 100.295 303.505 100.534 302.988C101.053 301.863 101.573 300.738 102.208 299.684C102.966 298.424 103.714 297.158 104.463 295.892C107.684 290.446 110.905 285.001 114.874 280.015C115.334 279.437 115.792 278.858 116.249 278.278C118.895 274.926 121.536 271.58 124.649 268.642C125.712 267.639 126.563 266.474 127.415 265.307C128.038 264.454 128.662 263.6 129.37 262.807C129.959 262.148 130.626 261.595 131.289 261.045L131.29 261.044C132.038 260.423 132.783 259.805 133.408 259.042C134.235 258.032 135.186 257.123 136.174 256.178ZM332.382 699.663C332.537 700.304 332.661 700.815 332.769 701.261L332.864 701.658L332.9 701.804L333.062 702.479C331.886 702.536 331.684 703.334 331.471 704.179C331.269 704.981 331.056 705.826 329.987 706.122C329.347 706.163 328.673 706.161 327.976 706.159C326.136 706.154 324.138 706.149 322.186 706.933C320.945 707.43 321.059 707.858 321.64 708.706C322.088 708.696 322.539 708.71 322.987 708.723C324.599 708.771 326.175 708.818 327.458 707.804C327.969 708.002 328.044 708.386 328.116 708.752C328.185 709.103 328.251 709.437 328.696 709.571C329.51 709.571 330.348 709.631 331.19 709.691C333.108 709.829 335.044 709.968 336.744 709.399C338.634 708.765 340.451 708.774 342.264 708.784C343.043 708.788 343.822 708.792 344.605 708.745C346.487 708.633 348.378 708.66 350.268 708.687C351.1 708.699 351.931 708.71 352.762 708.71C352.961 708.71 353.161 708.713 353.361 708.715C353.877 708.721 354.392 708.727 354.905 708.693C355.073 708.682 355.235 708.58 355.398 708.477L355.398 708.477C355.471 708.431 355.544 708.385 355.617 708.347C355.621 708.172 355.64 707.995 355.66 707.819C355.716 707.31 355.771 706.802 355.451 706.325C353.049 707.26 352.984 707.203 351.518 705.895C351.437 705.823 351.352 705.747 351.262 705.667C350.682 705.153 350.867 704.756 351.035 704.398C351.129 704.196 351.218 704.006 351.159 703.814C350.874 702.873 350.128 702.782 349.397 702.693C348.909 702.633 348.428 702.574 348.094 702.266C347.752 702.036 347.821 701.688 347.892 701.335C347.983 700.879 348.075 700.414 347.279 700.187C347.071 700.658 347.073 701.204 347.076 701.748C347.081 702.766 347.085 703.776 345.705 704.269C344.607 703.75 344.038 703.481 343.573 703.604C343.073 703.738 342.694 704.328 341.907 705.552C341.872 706.068 342.244 706.108 342.638 706.15C343.068 706.196 343.525 706.244 343.509 706.919C343.211 706.877 342.901 706.926 342.601 706.973C341.831 707.094 341.135 707.204 340.916 705.729C340.849 705.287 339.961 704.966 339.273 704.718C339.012 704.624 338.781 704.54 338.633 704.464C338.143 704.428 337.892 704.664 337.682 704.861C337.465 705.064 337.292 705.227 336.946 705.009C336.199 704.536 335.909 703.825 335.628 703.138C335.488 702.794 335.35 702.457 335.159 702.158C335.361 701.858 335.625 701.629 335.875 701.412C336.239 701.097 336.574 700.807 336.654 700.354C335.89 699.877 335.432 700.239 334.99 700.588C334.62 700.88 334.262 701.163 333.746 700.938L333.55 700.755C333.311 700.531 332.989 700.23 332.382 699.663ZM361.254 585.771C360.518 587.325 359.781 588.88 359.704 590.671C358.845 589.374 359.238 588.232 359.629 587.099C359.914 586.271 360.197 585.449 359.988 584.575C361.956 578.861 363.413 573.001 364.87 567.144C365.472 564.721 366.075 562.298 366.713 559.887C367.003 558.791 367.304 557.691 367.606 556.588C368.332 553.94 369.063 551.272 369.656 548.586C369.83 547.793 369.985 546.989 370.141 546.179C370.714 543.208 371.298 540.179 372.904 537.508C372.652 536.122 373.14 534.882 373.619 533.662L373.619 533.661L373.619 533.661L373.62 533.66L373.62 533.659C373.784 533.241 373.948 532.824 374.08 532.405C374.866 529.912 375.748 527.451 376.629 524.989C377.401 522.835 378.172 520.681 378.879 518.505C379.149 517.676 379.51 517.629 380.082 517.553C380.211 517.536 380.35 517.518 380.502 517.489C380.057 518.383 379.906 519.333 379.759 520.261C379.547 521.599 379.342 522.891 378.27 523.899C378.249 523.919 378.327 524.027 378.431 524.17C378.564 524.354 378.74 524.596 378.799 524.783C379.004 525.446 379.25 526.401 378.717 526.754C377.31 527.689 377.13 529.067 376.951 530.445C376.848 531.229 376.746 532.012 376.418 532.714C375.533 534.609 375.094 536.74 374.667 538.814L374.66 538.85C374.357 540.317 373.856 541.693 373.353 543.08C373.222 543.44 373.091 543.801 372.963 544.164C372.114 546.577 371.53 549.083 370.948 551.58C370.772 552.334 370.596 553.087 370.413 553.837C370.087 555.177 369.668 556.491 369.249 557.802C368.693 559.546 368.139 561.283 367.807 563.069C367.4 565.259 366.804 567.376 366.206 569.495L366.205 569.499C365.97 570.332 365.735 571.165 365.512 572.003C365.115 573.49 364.678 574.966 364.241 576.441C363.655 578.419 363.07 580.397 362.58 582.402C362.293 583.58 361.773 584.675 361.254 585.771ZM82.0679 543.746C81.9124 543.44 81.7767 543.123 81.6433 542.811C81.3322 542.085 81.0333 541.387 80.524 540.918C80.3918 540.796 80.2336 540.727 80.0719 540.657C79.7435 540.515 79.401 540.367 79.2328 539.753C78.2146 536.039 77.1759 532.309 75.7646 528.735C75.5509 528.194 75.3806 527.633 75.2097 527.07C74.8036 525.732 74.3942 524.384 73.392 523.263C70.3779 519.896 67.4299 516.469 64.4825 513.043L64.4781 513.038L64.4343 512.987C63.6683 512.096 62.9022 511.206 62.135 510.317C62.0346 510.2 61.9137 510.099 61.7925 509.999C61.491 509.748 61.1872 509.495 61.1895 508.986C61.1918 508.259 60.6857 507.871 60.1907 507.49C60.0083 507.35 59.8274 507.211 59.674 507.057C59.5672 506.95 59.4675 506.827 59.3638 506.699C58.983 506.229 58.549 505.694 57.5192 505.643C60.1113 511.677 63.2464 517.055 66.462 522.377C69.5165 527.43 72.6422 532.441 75.8719 537.382C77.0166 539.133 77.9975 540.96 78.9795 542.789L78.9807 542.791C79.2591 543.31 79.5376 543.829 79.82 544.346C79.9392 544.563 80.1703 544.718 80.3524 544.841L80.3532 544.841C80.4239 544.889 80.4872 544.932 80.5335 544.971L81.5866 544.13L82.0679 543.746ZM321.368 301.354C321.101 302.083 320.838 302.8 319.734 302.979C319.39 302.017 319.54 301.276 320.162 300.323C322.841 296.23 325.467 292.1 328.092 287.971C328.708 287.003 329.324 286.035 329.94 285.067C330.176 284.696 330.412 284.324 330.647 283.952C330.892 283.562 331.137 283.172 331.382 282.782L331.384 282.78C333.566 279.307 335.757 275.819 338.396 272.641C339.384 271.45 340.231 270.144 341.078 268.837L341.079 268.836L341.079 268.836L341.08 268.835L341.08 268.834L341.081 268.833L341.082 268.832C341.634 267.981 342.186 267.129 342.779 266.308C343.08 265.891 343.381 265.472 343.681 265.054L343.682 265.054L343.682 265.054L343.682 265.054C345.533 262.48 347.387 259.905 349.398 257.461C351.014 255.496 352.572 255.502 354.605 256.942C353.994 259.314 352.484 261.073 350.973 262.834C350.117 263.831 349.262 264.828 348.569 265.937C347.396 267.817 346.019 269.553 344.64 271.291C343.649 272.539 342.658 273.789 341.74 275.095C340.065 277.477 338.201 279.789 336.34 282.096L336.339 282.097C335.766 282.808 335.192 283.519 334.625 284.231C333.906 285.135 333.182 286.036 332.457 286.938L332.455 286.94C329.821 290.217 327.185 293.496 324.787 296.937C323.978 298.099 323.139 299.209 322.12 300.066C321.715 300.406 321.54 300.882 321.368 301.354ZM496.418 621.706C497.609 620.488 499.097 619.788 500.589 619.086L500.592 619.085C501.149 618.822 501.706 618.56 502.249 618.27C503.541 617.579 504.772 616.777 506.004 615.974C507.025 615.308 508.047 614.642 509.104 614.04C509.444 613.846 509.612 613.472 509.778 613.105C510.043 612.518 510.301 611.945 511.243 612.142C513.532 608.001 517.241 605.352 521.019 602.661C521.537 603.013 521.958 603.3 522.354 603.572L522.812 603.137C523.073 602.888 523.332 602.643 523.586 602.402C523.298 602.085 523.03 601.785 522.768 601.496C523.038 601.016 523.497 601.055 523.958 601.094C524.468 601.137 524.981 601.18 525.245 600.522C524.954 600.411 524.671 600.303 524.393 600.197C524.172 600.113 523.954 600.03 523.736 599.947L523.736 599.935C523.876 597.327 523.877 597.314 526.28 596.795C526.754 596.693 527.041 596.51 527.033 595.998C527.112 595.509 526.822 595.253 526.535 594.999C526.407 594.885 526.28 594.772 526.186 594.639C526.348 594.297 526.689 594.034 527.028 593.772C527.662 593.284 528.287 592.801 527.715 591.823C525.847 592.424 524.559 593.681 523.285 594.924L523.285 594.924C522.686 595.509 522.091 596.09 521.44 596.598C520.617 597.24 519.778 597.861 518.938 598.483C517.361 599.65 515.781 600.818 514.304 602.134C512.114 604.081 509.89 606.013 507.628 607.851C506.724 608.584 505.783 609.272 504.841 609.961C503.123 611.216 501.402 612.474 499.902 614.01C499.664 614.252 499.437 614.527 499.209 614.801C498.668 615.453 498.125 616.107 497.439 616.35C496.373 616.729 495.676 617.415 494.968 618.113C494.812 618.267 494.654 618.422 494.492 618.574C493.81 619.213 493.154 619.879 492.517 620.526L492.516 620.527L492.506 620.538L492.496 620.548C492.369 620.677 492.242 620.806 492.115 620.934C491.994 621.057 491.873 621.179 491.753 621.299C492.562 622.017 493.334 621.663 494.075 621.322C494.892 620.947 495.671 620.59 496.418 621.706ZM463.154 729.108C462.352 729.473 461.583 729.572 460.745 728.998C462.851 727.55 465.328 726.728 467.582 726.103C469.639 725.531 471.553 724.673 473.463 723.815C474.939 723.153 476.413 722.492 477.949 721.964C482.596 720.372 486.997 718.146 491.277 715.684C492.244 715.127 493.297 714.758 494.36 714.386C495.426 714.012 496.502 713.635 497.509 713.062C500.737 711.224 503.995 709.444 507.255 707.664C512.55 704.773 517.848 701.88 523.016 698.733C526.23 696.776 529.362 694.699 532.494 692.621L532.495 692.621L532.496 692.62L532.498 692.619L532.499 692.618C535.416 690.683 538.333 688.749 541.315 686.912C543.115 685.804 544.814 684.444 546.514 683.081C547.409 682.364 548.303 681.647 549.214 680.966C551.345 679.374 553.41 677.701 555.477 676.026L555.478 676.026L555.48 676.025L555.481 676.024L555.482 676.023C558.211 673.812 560.942 671.6 563.825 669.572C565.936 668.088 568.146 666.489 569.941 664.513C570.342 664.071 570.748 663.684 571.725 664.237C571.514 664.746 571.078 665.146 570.637 665.55C570.442 665.729 570.245 665.91 570.067 666.101C569.989 666.185 569.912 666.27 569.835 666.357C569.768 666.432 569.701 666.509 569.634 666.586C569.201 667.08 568.766 667.578 568.231 667.908C566.128 669.208 564.32 670.858 562.511 672.507L562.511 672.507C561.245 673.662 559.979 674.817 558.613 675.851C557.033 677.046 555.501 678.301 553.968 679.555L553.967 679.556C551.67 681.437 549.371 683.318 546.912 685.002C544.845 686.419 542.827 687.909 540.809 689.399L540.808 689.401L540.806 689.402L540.804 689.403L540.802 689.405C538.654 690.991 536.506 692.578 534.298 694.075C530.295 696.792 526.165 699.33 522.007 701.806C512.277 707.604 502.208 712.775 491.925 717.51C485.906 720.283 479.846 722.948 473.587 725.213C472.641 725.554 471.688 725.884 470.734 726.215L470.733 726.215C468.18 727.099 465.617 727.987 463.154 729.108ZM38.3601 280.82L38.3706 280.809L38.8019 280.359C38.2175 279.917 37.9743 279.301 37.7346 278.694C37.593 278.336 37.4526 277.981 37.2438 277.666C37.5031 276.873 38.1785 276.916 38.8495 276.958C39.5716 277.003 40.2886 277.048 40.4768 276.052C40.3239 275.716 39.9996 275.684 39.6765 275.652C39.2988 275.614 38.9227 275.577 38.824 275.056C38.6498 274.066 39.0961 273.292 39.5393 272.524C39.7589 272.144 39.9777 271.764 40.12 271.36C40.3752 271.293 40.6417 271.32 40.9064 271.346C41.359 271.392 41.8061 271.437 42.1817 271.008C41.4934 270.117 40.8951 269.192 41.6607 268.076C42.2202 267.262 42.6315 266.355 43.0427 265.448C43.7509 263.886 44.4587 262.324 45.9229 261.246C46.3125 260.958 46.4466 260.523 46.5794 260.093C46.733 259.595 46.8848 259.103 47.4273 258.85C46.9689 257.264 47.7631 256.103 48.5426 254.963C48.7643 254.639 48.9847 254.317 49.1748 253.987C49.6369 253.184 50.0973 252.38 50.5577 251.577L50.5578 251.576C52.8922 247.501 55.2281 243.422 57.8018 239.502L57.8681 239.401C61.9379 233.202 66.0245 226.978 70.6373 221.189C71.4719 220.141 72.2832 219.07 73.0956 217.997L73.0959 217.997L73.0963 217.996L73.0966 217.996C75.397 214.959 77.7057 211.911 80.573 209.35C81.1823 208.807 81.2518 208.219 80.6961 207.789C65.0381 221.331 54.3668 238.447 45.3041 256.746C45.2457 256.684 45.1885 256.622 45.132 256.56L45.1304 256.559C44.6695 256.055 44.2459 255.593 43.4635 255.933C43.254 256.367 43.0588 256.814 42.863 257.263L42.8625 257.264C42.4212 258.274 41.9769 259.292 41.3592 260.188C40.2558 261.789 40.2542 263.183 41.4902 264.396L41.3123 264.733C40.5237 266.223 39.8441 267.508 39.2123 268.704C38.9798 268.727 38.7253 268.727 38.4834 268.727C37.9976 268.727 37.5623 268.727 37.4569 268.914C37.2318 269.314 36.9768 269.706 36.7214 270.099C35.7113 271.651 34.6959 273.212 35.5011 275.33C34.2642 275.246 33.9239 275.972 33.5933 276.678C33.4091 277.071 33.2279 277.458 32.8964 277.695C33.2087 278.337 32.8632 278.883 32.5089 279.442C32.0627 280.146 31.6026 280.872 32.4244 281.843C33.4757 283.085 32.8727 284.327 31.2783 284.9C31.175 284.796 31.0724 284.693 30.9598 284.581L30.787 284.408C30.7227 284.344 30.6544 284.275 30.5806 284.201C30.649 284.794 30.2852 285.224 29.9294 285.644C29.5052 286.145 29.0926 286.632 29.4377 287.367C29.7605 287.704 29.9902 287.485 30.2174 287.269C30.4879 287.012 30.7548 286.759 31.171 287.449C30.9019 288.1 30.6498 288.774 30.3948 289.455C29.7851 291.085 29.1595 292.756 28.249 294.255C27.3887 295.674 27.575 296.707 27.9349 298.292C28.2099 297.816 28.4257 297.331 28.6328 296.866C29.1793 295.64 29.6652 294.549 31.0194 294.11C30.9916 294.082 30.9636 294.055 30.9355 294.027L30.9115 294.004L30.8458 293.94C30.3041 293.414 29.8142 292.939 30.5774 292.008C31.2326 291.206 31.997 291.165 32.8148 291.121C32.9547 291.113 33.0962 291.105 33.2389 291.094C33.591 291.067 33.6478 290.717 33.4489 290.515C33.0904 290.387 32.731 290.26 32.2833 290.101L31.7188 289.901C32.2455 288.905 32.7192 287.896 33.19 286.892L33.1903 286.892C34.1895 284.762 35.1759 282.66 36.6298 280.779L37.5343 281.683C37.7444 281.463 37.9331 281.266 38.1095 281.082L38.3601 280.82Z" fill="#DAFBFF"/>
</svg>