<?xml version="1.0" standalone="no"?>
<!DOCTYPE svg PUBLIC "-//W3C//DTD SVG 20010904//EN"
 "http://www.w3.org/TR/2001/REC-SVG-20010904/DTD/svg10.dtd">
<svg version="1.0" xmlns="http://www.w3.org/2000/svg"
 width="975.000000pt" height="1181.000000pt" viewBox="0 0 975.000000 1181.000000"
 preserveAspectRatio="xMidYMid meet">

<g transform="translate(0.000000,1181.000000) scale(0.100000,-0.100000)"
fill="#000000" stroke="none">
<path d="M5 11800 c-9 -14 12 -406 30 -570 127 -1153 633 -2211 1445 -3020
397 -397 827 -704 1335 -955 314 -154 583 -257 919 -351 88 -24 161 -46 164
-49 3 -3 -873 -5 -1946 -5 l-1952 0 0 -1030 0 -1030 1863 -1 1862 0 -165 -34
c-1512 -314 -2760 -1475 -3288 -3060 -158 -472 -244 -964 -267 -1522 l-6 -153
895 0 896 0 0 80 c0 111 26 345 56 508 149 818 564 1462 1221 1898 128 85 377
217 523 277 73 31 315 117 326 117 2 0 5 -649 6 -1442 l3 -1443 928 -3 927 -2
0 1445 c0 795 2 1445 4 1445 14 0 168 -60 276 -108 643 -283 1155 -778 1455
-1407 180 -377 277 -773 301 -1237 l7 -138 958 0 959 0 0 113 c0 236 -37 576
-96 867 -240 1203 -928 2301 -1899 3030 -547 411 -1157 690 -1820 833 -11 3
843 5 1898 6 l1917 1 0 1015 0 1015 -1902 1 -1903 0 145 39 c1026 273 1962
924 2640 1835 623 836 981 1843 1017 2858 l6 187 -961 0 -962 0 0 -42 c0 -90
-21 -368 -35 -478 -79 -595 -287 -1102 -627 -1533 -100 -126 -321 -348 -448
-449 -183 -145 -358 -257 -564 -360 -126 -63 -271 -128 -287 -128 -5 0 -9 602
-9 1495 l0 1495 -945 0 -945 0 0 -1495 c0 -1022 -3 -1495 -10 -1495 -6 0 -66
21 -133 46 -158 60 -415 184 -565 272 -876 519 -1347 1362 -1390 2489 l-7 178
-922 3 c-611 1 -924 -1 -928 -8z"/>
</g>
</svg>
