<?xml version="1.0" encoding="UTF-8"?>
<svg id="Capa_2" data-name="Capa 2" xmlns="http://www.w3.org/2000/svg" viewBox="0 0 582.53 196.25">
  <defs>
    <style>
      .cls-1 {
        fill: #fff;
      }
    </style>
  </defs>
  <g id="Capa_1-2" data-name="Capa 1">
    <g>
      <g>
        <path class="cls-1" d="M340.64,37.68c0,2.13-.46,4-1.38,5.62s-2.22,2.87-3.9,3.76-3.69,1.32-6.01,1.32c-1.02,0-2.02-.07-3.02-.22-1-.15-1.97-.37-2.92-.69-.95-.31-1.91-.71-2.89-1.2v-7.66c1.47.82,2.97,1.51,4.49,2.06,1.52.56,2.95.83,4.3.83.88,0,1.59-.15,2.11-.44s.91-.69,1.15-1.18.37-1.03.37-1.62c0-.72-.18-1.35-.54-1.89s-.91-1.08-1.65-1.62c-.73-.54-1.69-1.15-2.87-1.84-.82-.52-1.64-1.08-2.45-1.67-.82-.59-1.58-1.28-2.28-2.06-.7-.78-1.27-1.72-1.69-2.8-.43-1.08-.64-2.37-.64-3.88,0-2.09.41-3.89,1.25-5.4.83-1.5,2.06-2.67,3.68-3.51,1.62-.83,3.56-1.25,5.82-1.25,1.47,0,2.95.21,4.44.61,1.49.41,3.04,1.02,4.64,1.84l-2.26,6.48c-1.34-.72-2.54-1.25-3.61-1.6-1.07-.34-2.11-.52-3.12-.52-.69,0-1.27.12-1.75.37-.47.24-.83.59-1.08,1.03-.24.44-.36.96-.36,1.55,0,.75.16,1.38.49,1.89.33.51.87,1.01,1.62,1.52.75.51,1.76,1.15,3.04,1.94,1.5.85,2.78,1.76,3.83,2.73,1.04.97,1.84,2.04,2.38,3.24.54,1.2.81,2.61.81,4.25Z"/>
        <path class="cls-1" d="M353.99,20.45c2.22,0,4.12.48,5.69,1.45,1.57.96,2.78,2.36,3.61,4.17.83,1.82,1.25,4.03,1.25,6.65v3.83h-14.09c0,2,.45,3.5,1.35,4.52.9,1.01,2.23,1.52,4,1.52,1.31,0,2.54-.16,3.71-.49,1.16-.33,2.38-.85,3.66-1.57v5.94c-1.21.66-2.49,1.14-3.83,1.45-1.34.31-2.87.46-4.57.46-2.58,0-4.74-.53-6.48-1.6-1.73-1.06-3.05-2.63-3.95-4.69-.9-2.06-1.35-4.58-1.35-7.56s.43-5.65,1.3-7.73c.87-2.08,2.11-3.66,3.76-4.74,1.63-1.08,3.61-1.62,5.94-1.62ZM354.18,26.04c-1.05,0-1.91.42-2.58,1.25s-1.04,2.2-1.1,4.1h7.12c0-1.15-.14-2.11-.42-2.9-.28-.79-.67-1.39-1.18-1.82-.51-.43-1.12-.64-1.84-.64Z"/>
        <path class="cls-1" d="M378.34,48.38c-2.42,0-4.48-.49-6.16-1.47s-2.96-2.5-3.83-4.54c-.87-2.05-1.3-4.66-1.3-7.83,0-2.88.44-5.37,1.33-7.49.88-2.11,2.18-3.75,3.9-4.91,1.72-1.16,3.83-1.74,6.35-1.74,1.48,0,2.83.16,4.05.49,1.23.33,2.37.8,3.41,1.42l-2.11,5.84c-.85-.49-1.68-.86-2.5-1.11-.82-.24-1.65-.37-2.5-.37-.92,0-1.7.29-2.33.88-.64.59-1.13,1.47-1.47,2.63-.34,1.16-.52,2.59-.52,4.3s.17,3.12.52,4.25c.35,1.13.84,1.97,1.5,2.53.65.56,1.45.83,2.4.83,1.11,0,2.19-.19,3.24-.56s2.08-.91,3.09-1.6v6.23c-.98.72-2.06,1.27-3.22,1.65s-2.45.56-3.85.56Z"/>
        <path class="cls-1" d="M402.49,20.4c.36,0,.74.02,1.15.07.41.05.82.14,1.25.27l-.68,7.66c-.33-.1-.7-.17-1.11-.22-.41-.05-.89-.08-1.44-.08-.76,0-1.44.12-2.04.37-.61.25-1.14.62-1.6,1.13-.46.51-.81,1.15-1.06,1.91-.25.77-.37,1.7-.37,2.77v13.6h-7.46v-27h5.69l1.08,4.42h.35c.39-.85.9-1.65,1.52-2.38.62-.74,1.33-1.34,2.13-1.82s1.66-.71,2.58-.71Z"/>
        <path class="cls-1" d="M416.47,20.45c2.22,0,4.12.48,5.7,1.45,1.57.96,2.77,2.36,3.61,4.17.83,1.82,1.25,4.03,1.25,6.65v3.83h-14.09c0,2,.45,3.5,1.35,4.52.9,1.01,2.23,1.52,4,1.52,1.31,0,2.54-.16,3.71-.49,1.16-.33,2.38-.85,3.66-1.57v5.94c-1.21.66-2.49,1.14-3.83,1.45-1.34.31-2.86.46-4.56.46-2.59,0-4.75-.53-6.48-1.6-1.74-1.06-3.05-2.63-3.95-4.69-.9-2.06-1.35-4.58-1.35-7.56s.43-5.65,1.3-7.73,2.12-3.66,3.76-4.74,3.61-1.62,5.94-1.62ZM416.67,26.04c-1.05,0-1.91.42-2.58,1.25s-1.04,2.2-1.1,4.1h7.11c0-1.15-.14-2.11-.41-2.9-.28-.79-.67-1.39-1.18-1.82s-1.12-.64-1.84-.64Z"/>
        <path class="cls-1" d="M441.07,42.09c.59,0,1.19-.07,1.81-.22.62-.15,1.28-.35,1.96-.61v5.74c-.82.43-1.74.76-2.75,1.01-1.02.25-2.13.37-3.34.37-1.64,0-3.01-.31-4.12-.93-1.11-.62-1.95-1.59-2.5-2.9-.56-1.31-.84-3.03-.84-5.15v-12.57h-2.89v-3.63l3.53-2.11,1.87-5.74h4.91v5.6h5.79v5.89h-5.79v12.52c0,.92.2,1.6.61,2.06s.99.69,1.75.69Z"/>
        <path class="cls-1" d="M458.54,20.4c2.88,0,5.11.81,6.7,2.43s2.38,4.03,2.38,7.24v17.82h-5.35l-1.33-3.58h-.15c-.62.92-1.28,1.68-1.96,2.28-.68.61-1.46,1.06-2.33,1.35-.87.29-1.91.44-3.12.44-1.54,0-2.82-.39-3.83-1.15-1.02-.77-1.79-1.8-2.31-3.09-.52-1.29-.79-2.74-.79-4.34,0-2.85.84-4.98,2.53-6.41s4.15-2.2,7.39-2.33l3.78-.15v-.83c0-1.34-.26-2.32-.78-2.94s-1.29-.93-2.31-.93c-.88,0-1.84.17-2.87.52-1.03.34-2.16.82-3.36,1.45l-2.06-5.35c1.34-.79,2.83-1.38,4.47-1.79,1.64-.41,3.4-.61,5.3-.61ZM458.25,35.67c-1.47.06-2.54.42-3.21,1.06-.67.64-1.01,1.55-1.01,2.72,0,1.08.21,1.87.64,2.38s1.03.76,1.81.76c1.05,0,1.92-.42,2.63-1.25.7-.83,1.05-1.95,1.05-3.36v-2.41l-1.91.1Z"/>
        <path class="cls-1" d="M485.64,20.4c.36,0,.74.02,1.15.07.41.05.82.14,1.25.27l-.68,7.66c-.33-.1-.7-.17-1.11-.22-.41-.05-.89-.08-1.44-.08-.76,0-1.44.12-2.04.37-.61.25-1.14.62-1.6,1.13-.46.51-.81,1.15-1.06,1.91-.25.77-.37,1.7-.37,2.77v13.6h-7.46v-27h5.69l1.08,4.42h.35c.39-.85.9-1.65,1.52-2.38.62-.74,1.33-1.34,2.13-1.82s1.66-.71,2.58-.71Z"/>
        <path class="cls-1" d="M502.67,10.78c-.39.46-.9,1-1.52,1.62-.62.62-1.29,1.28-2.01,1.96-.72.69-1.44,1.36-2.16,2.01-.72.66-1.39,1.24-2.01,1.77h-5.26v-.64c.56-.82,1.11-1.65,1.67-2.48.56-.83,1.08-1.65,1.57-2.45.49-.8.93-1.56,1.33-2.28h8.4v.49ZM497.86,47.89h-7.46v-27h7.46v27Z"/>
        <path class="cls-1" d="M513.37,20.4c2.88,0,5.11.81,6.7,2.43s2.38,4.03,2.38,7.24v17.82h-5.35l-1.33-3.58h-.15c-.62.92-1.28,1.68-1.96,2.28-.68.61-1.46,1.06-2.33,1.35-.87.29-1.91.44-3.12.44-1.54,0-2.82-.39-3.83-1.15-1.02-.77-1.79-1.8-2.31-3.09-.52-1.29-.79-2.74-.79-4.34,0-2.85.84-4.98,2.53-6.41s4.15-2.2,7.39-2.33l3.78-.15v-.83c0-1.34-.26-2.32-.78-2.94s-1.29-.93-2.31-.93c-.88,0-1.84.17-2.87.52-1.03.34-2.16.82-3.36,1.45l-2.06-5.35c1.34-.79,2.83-1.38,4.47-1.79,1.64-.41,3.4-.61,5.3-.61ZM513.08,35.67c-1.47.06-2.54.42-3.21,1.06-.67.64-1.01,1.55-1.01,2.72,0,1.08.21,1.87.64,2.38s1.03.76,1.81.76c1.05,0,1.92-.42,2.63-1.25.7-.83,1.05-1.95,1.05-3.36v-2.41l-1.91.1Z"/>
        <path class="cls-1" d="M543.61,48.38c-2.68,0-4.79-1.23-6.31-3.68s-2.28-5.89-2.28-10.31.77-7.9,2.31-10.33c1.54-2.44,3.6-3.66,6.18-3.66.98,0,1.86.15,2.63.46.77.31,1.46.75,2.08,1.33.62.57,1.16,1.3,1.62,2.18h.25c-.07-.98-.13-1.92-.2-2.82-.07-.9-.1-1.68-.1-2.33v-8.64h7.51v37.31h-5.89l-1.23-2.99h-.39c-.49.75-1.03,1.39-1.62,1.91-.59.52-1.25.92-1.99,1.18-.73.26-1.6.39-2.58.39ZM546.11,42.24c1.38,0,2.37-.57,2.97-1.72.61-1.14.91-2.94.91-5.4v-1.28c0-2.42-.3-4.21-.88-5.38s-1.59-1.74-2.99-1.74c-1.11,0-1.97.64-2.58,1.91s-.91,3.17-.91,5.69c0,2.68.3,4.67.91,5.96.61,1.29,1.46,1.94,2.58,1.94Z"/>
        <path class="cls-1" d="M571.98,20.45c2.22,0,4.12.48,5.69,1.45,1.57.96,2.78,2.36,3.61,4.17.83,1.82,1.25,4.03,1.25,6.65v3.83h-14.09c0,2,.45,3.5,1.35,4.52.9,1.01,2.23,1.52,4,1.52,1.31,0,2.54-.16,3.71-.49,1.16-.33,2.38-.85,3.66-1.57v5.94c-1.21.66-2.49,1.14-3.83,1.45-1.34.31-2.87.46-4.57.46-2.58,0-4.74-.53-6.48-1.6-1.73-1.06-3.05-2.63-3.95-4.69-.9-2.06-1.35-4.58-1.35-7.56s.43-5.65,1.3-7.73c.87-2.08,2.11-3.66,3.76-4.74,1.63-1.08,3.61-1.62,5.94-1.62ZM572.18,26.04c-1.05,0-1.91.42-2.58,1.25s-1.04,2.2-1.1,4.1h7.12c0-1.15-.14-2.11-.42-2.9-.28-.79-.67-1.39-1.18-1.82-.51-.43-1.12-.64-1.84-.64Z"/>
        <path class="cls-1" d="M339.75,94.46l-1.77-7.61h-8.98l-1.77,7.61h-8.39l9.52-35.1h10.06l9.67,35.1h-8.35ZM334.85,72.18c-.16-.75-.33-1.55-.49-2.41-.16-.85-.33-1.7-.49-2.55-.16-.85-.29-1.6-.39-2.26-.06.66-.17,1.39-.32,2.21-.15.82-.31,1.64-.49,2.48-.18.83-.36,1.66-.52,2.48l-1.76,8.1h6.23l-1.76-8.05Z"/>
        <path class="cls-1" d="M366.31,86.36c0,1.83-.36,3.39-1.08,4.66s-1.79,2.25-3.21,2.92-3.2,1-5.33,1c-1.47,0-2.86-.11-4.17-.34-1.31-.23-2.57-.62-3.78-1.18v-6.78c1.11.62,2.33,1.14,3.66,1.55,1.33.41,2.58.61,3.76.61.95,0,1.66-.16,2.13-.49.47-.33.72-.84.72-1.52,0-.39-.11-.76-.32-1.11-.21-.34-.65-.72-1.3-1.13-.66-.41-1.65-.93-2.99-1.55-1.24-.59-2.29-1.27-3.14-2.04-.85-.77-1.49-1.66-1.91-2.68-.42-1.01-.64-2.19-.64-3.53,0-2.49.82-4.41,2.48-5.77,1.65-1.36,3.9-2.04,6.75-2.04,1.47,0,2.85.19,4.15.56,1.29.38,2.61.93,3.95,1.65l-2.01,5.45c-.92-.56-1.88-1.01-2.89-1.37-1.02-.36-1.98-.54-2.9-.54-.75,0-1.33.14-1.74.42s-.62.7-.62,1.25c0,.39.11.74.32,1.03.21.3.65.63,1.3,1.01.65.38,1.6.89,2.84,1.55,1.24.65,2.31,1.35,3.19,2.09.88.74,1.57,1.61,2.06,2.63.49,1.02.73,2.24.73,3.68Z"/>
        <path class="cls-1" d="M391.34,67.47v27h-5.79l-.88-3.39h-.39c-.46.88-1.02,1.61-1.69,2.18-.67.57-1.43,1-2.26,1.28s-1.74.42-2.73.42c-1.67,0-3.1-.38-4.29-1.13s-2.1-1.87-2.73-3.34c-.62-1.47-.93-3.29-.93-5.45v-17.57h7.46v15.36c0,1.87.21,3.28.64,4.25.42.97,1.14,1.45,2.16,1.45,1.11,0,1.96-.31,2.52-.93.57-.62.96-1.52,1.15-2.7s.3-2.6.3-4.27v-13.16h7.46Z"/>
        <path class="cls-1" d="M409.85,66.98c2.49,0,4.43.82,5.84,2.48,1.41,1.65,2.11,4.1,2.11,7.34v17.67h-7.51v-15.46c0-1.83-.21-3.22-.64-4.17-.42-.95-1.19-1.42-2.31-1.42-1.44,0-2.43.66-2.97,1.96-.54,1.31-.81,3.48-.81,6.53v12.57h-7.51v-27h5.79l.93,3.48h.4c.46-.88,1-1.62,1.64-2.21.64-.59,1.39-1.03,2.23-1.33.85-.29,1.79-.44,2.8-.44Z"/>
        <path class="cls-1" d="M432.92,88.67c.59,0,1.19-.07,1.81-.22.62-.15,1.28-.35,1.96-.61v5.74c-.82.43-1.74.76-2.75,1.01-1.02.25-2.13.37-3.34.37-1.64,0-3.01-.31-4.12-.93-1.11-.62-1.95-1.59-2.5-2.9-.56-1.31-.84-3.03-.84-5.15v-12.57h-2.89v-3.63l3.53-2.11,1.87-5.74h4.91v5.6h5.79v5.89h-5.79v12.52c0,.92.2,1.6.61,2.06s.99.69,1.75.69Z"/>
        <path class="cls-1" d="M461.49,80.92c0,1.93-.22,3.75-.67,5.45s-1.13,3.2-2.06,4.49-2.12,2.3-3.56,3.02c-1.44.72-3.16,1.08-5.15,1.08-1.86,0-3.51-.36-4.93-1.08-1.42-.72-2.61-1.72-3.56-2.99s-1.67-2.77-2.16-4.47c-.49-1.7-.73-3.53-.73-5.5,0-2.78.41-5.21,1.25-7.29.83-2.08,2.11-3.71,3.81-4.88s3.85-1.77,6.43-1.77c2.26,0,4.24.54,5.94,1.62,1.7,1.08,3.03,2.66,3.97,4.74.95,2.08,1.43,4.61,1.43,7.58ZM446.27,80.97c0,1.7.13,3.15.39,4.34.26,1.19.68,2.09,1.25,2.7.57.61,1.3.91,2.18.91s1.65-.3,2.21-.91c.56-.6.96-1.5,1.2-2.7s.36-2.66.36-4.39-.12-3.22-.36-4.37-.65-2.01-1.2-2.6c-.56-.59-1.29-.88-2.21-.88-1.34,0-2.32.65-2.92,1.96-.61,1.31-.91,3.29-.91,5.94Z"/>
        <path class="cls-1" d="M481.56,86.36c0,1.83-.36,3.39-1.08,4.66s-1.79,2.25-3.22,2.92c-1.42.67-3.19,1-5.32,1-1.47,0-2.86-.11-4.17-.34-1.31-.23-2.57-.62-3.78-1.18v-6.78c1.11.62,2.33,1.14,3.66,1.55,1.32.41,2.58.61,3.75.61.95,0,1.66-.16,2.14-.49.47-.33.71-.84.71-1.52,0-.39-.1-.76-.32-1.11s-.65-.72-1.3-1.13c-.66-.41-1.65-.93-2.99-1.55-1.24-.59-2.29-1.27-3.14-2.04-.85-.77-1.49-1.66-1.91-2.68-.42-1.01-.64-2.19-.64-3.53,0-2.49.83-4.41,2.48-5.77,1.65-1.36,3.9-2.04,6.75-2.04,1.47,0,2.85.19,4.15.56,1.29.38,2.61.93,3.95,1.65l-2.01,5.45c-.92-.56-1.88-1.01-2.9-1.37-1.01-.36-1.98-.54-2.89-.54-.75,0-1.34.14-1.75.42-.41.28-.61.7-.61,1.25,0,.39.1.74.32,1.03.21.3.65.63,1.3,1.01.66.38,1.6.89,2.85,1.55,1.24.65,2.31,1.35,3.19,2.09s1.57,1.61,2.06,2.63c.49,1.02.74,2.24.74,3.68Z"/>
        <path class="cls-1" d="M339.75,141.04h-17.43v-35.05h17.43v6.48h-9.77v7.17h9.08v6.48h-9.08v8.39h9.77v6.53Z"/>
        <path class="cls-1" d="M360.32,132.94c0,1.83-.36,3.39-1.08,4.66s-1.79,2.25-3.21,2.92-3.2,1-5.33,1c-1.47,0-2.86-.11-4.17-.34-1.31-.23-2.57-.62-3.78-1.18v-6.78c1.11.62,2.33,1.14,3.66,1.55,1.33.41,2.58.61,3.76.61.95,0,1.66-.16,2.13-.49.47-.33.72-.84.72-1.52,0-.39-.11-.76-.32-1.11-.21-.34-.65-.72-1.3-1.13-.66-.41-1.65-.93-2.99-1.55-1.24-.59-2.29-1.27-3.14-2.04-.85-.77-1.49-1.66-1.91-2.68-.42-1.01-.64-2.19-.64-3.53,0-2.49.82-4.41,2.48-5.77,1.65-1.36,3.9-2.04,6.75-2.04,1.47,0,2.85.19,4.15.56,1.29.38,2.61.93,3.95,1.65l-2.01,5.45c-.92-.56-1.88-1.01-2.89-1.37-1.02-.36-1.98-.54-2.9-.54-.75,0-1.33.14-1.74.42s-.62.7-.62,1.25c0,.39.11.74.32,1.03.21.3.65.63,1.3,1.01.65.38,1.6.89,2.84,1.55,1.24.65,2.31,1.35,3.19,2.09.88.74,1.57,1.61,2.06,2.63.49,1.02.73,2.24.73,3.68Z"/>
        <path class="cls-1" d="M374.21,135.24c.59,0,1.19-.07,1.82-.22.62-.15,1.28-.35,1.96-.61v5.74c-.82.43-1.73.76-2.75,1.01-1.01.25-2.12.37-3.34.37-1.64,0-3.01-.31-4.12-.93-1.11-.62-1.95-1.59-2.5-2.9-.56-1.31-.83-3.03-.83-5.15v-12.57h-2.89v-3.63l3.53-2.11,1.86-5.74h4.91v5.6h5.79v5.89h-5.79v12.52c0,.92.21,1.6.62,2.06s.99.69,1.74.69Z"/>
        <path class="cls-1" d="M402.63,114.04v27h-5.79l-.88-3.39h-.39c-.46.88-1.02,1.61-1.69,2.18-.67.57-1.43,1-2.26,1.28s-1.74.42-2.73.42c-1.67,0-3.1-.38-4.29-1.13s-2.1-1.87-2.73-3.34c-.62-1.47-.93-3.29-.93-5.45v-17.57h7.46v15.36c0,1.87.21,3.28.64,4.25.42.97,1.14,1.45,2.16,1.45,1.11,0,1.96-.31,2.52-.93.57-.62.96-1.52,1.15-2.7s.3-2.6.3-4.27v-13.16h7.46Z"/>
        <path class="cls-1" d="M414.9,141.53c-2.68,0-4.79-1.23-6.3-3.68-1.52-2.45-2.28-5.89-2.28-10.31s.77-7.9,2.31-10.33c1.54-2.44,3.6-3.66,6.18-3.66.98,0,1.85.15,2.63.46.77.31,1.46.75,2.09,1.33.62.57,1.16,1.3,1.62,2.18h.25c-.06-.98-.13-1.92-.2-2.82s-.1-1.68-.1-2.33v-8.64h7.51v37.31h-5.89l-1.23-2.99h-.39c-.49.75-1.03,1.39-1.62,1.91-.59.52-1.25.92-1.99,1.18-.74.26-1.6.39-2.58.39ZM417.41,135.39c1.37,0,2.36-.57,2.97-1.72.61-1.14.91-2.94.91-5.4v-1.28c0-2.42-.3-4.21-.88-5.38-.59-1.16-1.59-1.74-2.99-1.74-1.11,0-1.97.64-2.58,1.91s-.91,3.17-.91,5.69c0,2.68.3,4.67.91,5.96.61,1.29,1.47,1.94,2.58,1.94Z"/>
        <path class="cls-1" d="M437.14,103.34c1.28,0,2.26.31,2.94.93s1.03,1.6,1.03,2.94-.35,2.32-1.05,2.92c-.71.6-1.68.91-2.92.91s-2.27-.3-2.97-.91c-.7-.61-1.05-1.58-1.05-2.92s.34-2.36,1.03-2.97,1.69-.91,2.99-.91ZM440.82,114.04v27h-7.46v-27h7.46Z"/>
        <path class="cls-1" d="M456.33,113.55c2.88,0,5.11.81,6.7,2.43,1.59,1.62,2.38,4.03,2.38,7.24v17.82h-5.35l-1.33-3.58h-.15c-.62.92-1.28,1.68-1.96,2.28-.69.61-1.47,1.06-2.33,1.35-.87.29-1.91.44-3.12.44-1.54,0-2.81-.39-3.83-1.15-1.01-.77-1.78-1.8-2.31-3.09-.52-1.29-.78-2.74-.78-4.34,0-2.85.84-4.98,2.53-6.41,1.68-1.42,4.15-2.2,7.38-2.33l3.78-.15v-.83c0-1.34-.26-2.32-.79-2.94s-1.29-.93-2.31-.93c-.88,0-1.84.17-2.87.52-1.03.34-2.15.82-3.36,1.45l-2.06-5.35c1.34-.79,2.83-1.38,4.47-1.79s3.4-.61,5.3-.61ZM456.04,128.81c-1.47.06-2.55.42-3.22,1.06s-1.01,1.55-1.01,2.72c0,1.08.21,1.87.64,2.38.43.51,1.03.76,1.82.76,1.05,0,1.92-.42,2.63-1.25.7-.83,1.06-1.95,1.06-3.36v-2.41l-1.91.1Z"/>
        <path class="cls-1" d="M483.82,113.55c2.49,0,4.43.82,5.84,2.48,1.41,1.65,2.11,4.1,2.11,7.34v17.67h-7.51v-15.46c0-1.83-.21-3.22-.64-4.17-.42-.95-1.19-1.42-2.31-1.42-1.44,0-2.43.66-2.97,1.96-.54,1.31-.81,3.48-.81,6.53v12.57h-7.51v-27h5.79l.93,3.48h.4c.46-.88,1-1.62,1.64-2.21.64-.59,1.39-1.03,2.23-1.33.85-.29,1.79-.44,2.8-.44Z"/>
        <path class="cls-1" d="M506.89,135.24c.59,0,1.19-.07,1.82-.22.62-.15,1.28-.35,1.96-.61v5.74c-.82.43-1.73.76-2.75,1.01-1.01.25-2.12.37-3.34.37-1.64,0-3.01-.31-4.12-.93-1.11-.62-1.95-1.59-2.5-2.9-.56-1.31-.83-3.03-.83-5.15v-12.57h-2.89v-3.63l3.53-2.11,1.86-5.74h4.91v5.6h5.79v5.89h-5.79v12.52c0,.92.21,1.6.62,2.06s.99.69,1.74.69Z"/>
        <path class="cls-1" d="M517.49,103.34c1.28,0,2.26.31,2.95.93.68.62,1.03,1.6,1.03,2.94s-.35,2.32-1.06,2.92c-.7.6-1.68.91-2.92.91s-2.27-.3-2.97-.91c-.71-.61-1.06-1.58-1.06-2.92s.35-2.36,1.03-2.97c.69-.61,1.69-.91,2.99-.91ZM521.17,114.04v27h-7.46v-27h7.46Z"/>
        <path class="cls-1" d="M533.49,141.04h-7.51v-37.31h7.51v37.31Z"/>
        <path class="cls-1" d="M548.17,113.6c2.22,0,4.12.48,5.69,1.45,1.57.96,2.78,2.36,3.61,4.17.83,1.82,1.25,4.03,1.25,6.65v3.83h-14.09c0,2,.45,3.5,1.35,4.52.9,1.01,2.23,1.52,4,1.52,1.31,0,2.54-.16,3.71-.49,1.16-.33,2.38-.85,3.66-1.57v5.94c-1.21.66-2.49,1.14-3.83,1.45-1.34.31-2.87.46-4.57.46-2.58,0-4.74-.53-6.48-1.6-1.73-1.06-3.05-2.63-3.95-4.69-.9-2.06-1.35-4.58-1.35-7.56s.43-5.65,1.3-7.73c.87-2.08,2.11-3.66,3.76-4.74,1.63-1.08,3.61-1.62,5.94-1.62ZM548.37,119.19c-1.05,0-1.91.42-2.58,1.25s-1.04,2.2-1.1,4.1h7.12c0-1.15-.14-2.11-.42-2.9-.28-.79-.67-1.39-1.18-1.82-.51-.43-1.12-.64-1.84-.64Z"/>
        <path class="cls-1" d="M578.61,132.94c0,1.83-.36,3.39-1.08,4.66s-1.79,2.25-3.22,2.92c-1.42.67-3.19,1-5.32,1-1.47,0-2.86-.11-4.17-.34-1.31-.23-2.57-.62-3.78-1.18v-6.78c1.11.62,2.33,1.14,3.66,1.55,1.32.41,2.58.61,3.75.61.95,0,1.66-.16,2.14-.49.47-.33.71-.84.71-1.52,0-.39-.1-.76-.32-1.11s-.65-.72-1.3-1.13c-.66-.41-1.65-.93-2.99-1.55-1.24-.59-2.29-1.27-3.14-2.04-.85-.77-1.49-1.66-1.91-2.68-.42-1.01-.64-2.19-.64-3.53,0-2.49.83-4.41,2.48-5.77,1.65-1.36,3.9-2.04,6.75-2.04,1.47,0,2.85.19,4.15.56,1.29.38,2.61.93,3.95,1.65l-2.01,5.45c-.92-.56-1.88-1.01-2.9-1.37-1.01-.36-1.98-.54-2.89-.54-.75,0-1.34.14-1.75.42-.41.28-.61.7-.61,1.25,0,.39.1.74.32,1.03.21.3.65.63,1.3,1.01.66.38,1.6.89,2.85,1.55,1.24.65,2.31,1.35,3.19,2.09s1.57,1.61,2.06,2.63c.49,1.02.74,2.24.74,3.68Z"/>
        <path class="cls-1" d="M339.7,171.7c0,2.26-.35,4.17-1.06,5.74-.7,1.57-1.73,2.77-3.09,3.58s-3.04,1.23-5.03,1.23c-2.94,0-5.19-.9-6.72-2.7-1.54-1.8-2.31-4.42-2.31-7.86v-17.87h4.07v17.67c0,2.42.43,4.21,1.3,5.38.87,1.16,2.11,1.74,3.76,1.74s2.92-.57,3.75-1.72c.84-1.14,1.25-2.89,1.25-5.25v-17.82h4.07v17.87Z"/>
        <path class="cls-1" d="M358.7,153.83v3.63h-6.38v24.4h-4.12v-24.4h-6.38v-3.63h16.89Z"/>
        <path class="cls-1" d="M380.35,153.83v28.03h-5.2l-10.56-22.63h-.1c.03.52.05,1.08.07,1.67.01.59.04,1.19.07,1.79s.05,1.2.07,1.79c.02.59.02,1.13.02,1.62v15.76h-3.78v-28.03h5.2l10.51,22.43h.1c-.03-.42-.06-.89-.07-1.4-.02-.51-.03-1.06-.05-1.65-.02-.59-.02-1.18-.02-1.77v-17.62h3.73Z"/>
        <path class="cls-1" d="M383.69,170.62v-3.93h11.09v3.93h-11.09Z"/>
        <path class="cls-1" d="M398.12,153.83h13.01v3.43h-8.93v9.43h8.35v3.48h-8.35v11.68h-4.07v-28.03Z"/>
        <path class="cls-1" d="M420.21,153.83c2.98,0,5.2.67,6.67,2.01s2.21,3.32,2.21,5.94c0,1.8-.34,3.35-1.03,4.66-.69,1.31-1.79,2.29-3.29,2.95l6.18,12.47h-4.52l-5.2-11.39h-3.49v11.39h-4.07v-28.03h6.53ZM420.5,167.04c1.38,0,2.46-.39,3.26-1.18s1.2-2.03,1.2-3.73c0-1.8-.4-3.07-1.2-3.8-.8-.74-1.97-1.11-3.51-1.11h-2.5v9.82h2.75Z"/>
        <path class="cls-1" d="M442.88,157.02c-1.37,0-2.57.44-3.58,1.32-1.02.88-1.79,2.14-2.33,3.76-.54,1.62-.81,3.54-.81,5.77,0,3.37.57,6,1.72,7.9,1.14,1.9,2.84,2.85,5.1,2.85.98,0,1.92-.11,2.82-.34.9-.23,1.81-.56,2.73-.98v3.73c-.88.43-1.83.74-2.83.93s-2.08.29-3.26.29c-2.36,0-4.31-.6-5.87-1.82-1.55-1.21-2.72-2.9-3.48-5.05-.77-2.16-1.16-4.68-1.16-7.56s.44-5.35,1.33-7.51,2.14-3.84,3.78-5.06c1.63-1.21,3.6-1.82,5.89-1.82,1.08,0,2.17.14,3.29.42,1.11.28,2.17.71,3.19,1.3l-1.28,3.44c-.82-.49-1.66-.88-2.53-1.15s-1.78-.42-2.73-.42Z"/>
      </g>
      <g>
        <path class="cls-1" d="M39.72,128.18l5.96-21.02c-17.41-4.94-27.52-23.05-22.58-40.46,4.94-17.41,23.05-27.52,40.46-22.58l5.96-21.02C40.51,14.87,10.32,31.72,2.09,60.74c-8.23,29.02,8.62,59.21,37.64,67.44Z"/>
        <path class="cls-1" d="M43.79,68.06l-5.96,21.02c17.41,4.94,27.52,23.05,22.58,40.46-4.94,17.41-23.05,27.52-40.46,22.58l-5.96,21.02c29.02,8.23,59.21-8.62,67.44-37.64,8.23-29.02-8.62-59.21-37.64-67.44Z"/>
      </g>
      <rect class="cls-1" x="288.67" width="3.16" height="196.25"/>
      <path class="cls-1" d="M249.89,65.35v-21.84c-30.16,0-54.61,24.45-54.61,54.61s24.45,54.61,54.61,54.61v-21.84c-14.26,0-26.36-9.13-30.86-21.84h30.86v-21.84h-30.86c4.5-12.72,16.6-21.84,30.86-21.84Z"/>
      <path class="cls-1" d="M101.65,60.42v106.48h21.84v-28.35c12.2-.06,23.42-4.16,32.48-10.98v39.34h21.84v-81.73h-.06c0-.41.06-.81.06-1.22,0-30.16-24.45-54.61-54.61-54.61v21.84c18.1,0,32.77,14.67,32.77,32.77s-14.52,32.6-32.48,32.75v-56.28h-21.84Z"/>
    </g>
  </g>
</svg>